<?xml version="1.0" encoding="UTF-8"?>
<svg version="1.1" viewBox="0 0 1600 752" width="1280" height="1280" xmlns="http://www.w3.org/2000/svg">
<path transform="translate(0)" d="m0 0h1600v752h-1600v-752z" fill="#FBFEFE"/>
<path transform="translate(61.9 88.8)" d="m0 0h2.39c0.91-0 1.82-0.01 2.75-0.01 1.51 0 1.51 0 3.05 0.01 1.6-0 1.6-0 3.22-0.01 3.59 0 7.18 0.01 10.8 0.02 2.56 0 5.13-0.01 7.69-0.01 6.26-0 12.5 0 18.8 0.01 7.32 0.01 14.6 0.01 22 0.01 13.1 0 26.2 0.01 39.2 0.02 12.6 0.02 25.3 0.02 37.9 0.02h2.35 2.34c14.4 0 28.9 0.01 43.3 0.02h15.2c6.88 0 13.8 0.01 20.6 0.02h7.5c17.7 0 35.3 0.44 52.9 1.15 2.08 3.8 2.22 6.48 2.16 10.8-0.01 1.03-0.01 1.03-0.02 2.07-0.02 2.2-0.05 4.39-0.08 6.59-0.14 10.6 0 21.1 0.43 31.6 0.6 15 0.62 30 0.57 45.1-0.01 3.49-0.01 6.99-0.02 10.5-0.01 6.78-0.02 13.6-0.04 20.3-2.31 1.15-3.7 1.15-6.27 1.2-0.88 0.02-1.76 0.04-2.67 0.07-1.43 0.02-1.43 0.02-2.88 0.05-1.47 0.03-1.47 0.03-2.96 0.06-3.11 0.06-6.23 0.12-9.35 0.18-2.11 0.05-4.22 0.09-6.33 0.13-5.18 0.11-10.4 0.21-15.5 0.31-0.77 3.41-1.13 6.55-1.12 10-0.01 0.99-0.01 1.99-0.01 3.01 0 1.07 0.01 2.15 0.01 3.26v3.46c0 3.77 0.01 7.54 0.02 11.3v7.85c0.01 6.18 0.01 12.4 0.02 18.5 0.01 7.04 0.02 14.1 0.03 21.1 0.01 14.5 0.02 29 0.05 43.4-6.63 1.12-6.63 1.12-10 0-2.17 0.09-2.17 0.09-4.53 0.43-5.38 0.61-10.7 0.7-16.1 0.68h-3.05c-3.29 0-6.58 0-9.87-0.01-2.3 0-4.59-0.01-6.89-0.01-6.01 0-12-0.01-18-0.02-6.14-0.01-12.3-0.02-18.4-0.02-12-0.01-24.1-0.03-36.1-0.05v1.69c0.02 5.81 0.04 11.6 0.05 17.4 0.01 2.16 0.01 4.33 0.02 6.5 0.01 3.12 0.02 6.23 0.02 9.34 0.01 0.97 0.01 1.95 0.02 2.95v2.73c0 0.8 0 1.59 0.01 2.41-0.12 1.95-0.12 1.95-1.12 3.95-15.6 0.02-31.1 0.04-46.6 0.05-7.22 0.01-14.4 0.01-21.6 0.02-6.29 0.01-12.6 0.02-18.9 0.02-3.33 0-6.66 0.01-9.99 0.02h-11.2c-1.1 0.01-2.2 0.01-3.33 0.01-10.5-0.01-10.5-0.01-14.4-1.12-2.18-3.27-2.25-4.18-2.26-7.96 0-1.02-0.01-2.05-0.01-3.11 0-1.14 0.01-2.27 0.01-3.44 0-1.2 0-2.4-0.01-3.64v-10c0.01-3.61 0-7.21 0-10.8-0.01-7.06-0.01-14.1 0-21.2v-17.2-2.47-4.96c-0.01-15.5 0-31.1 0.01-46.6 0.01-13.3 0-26.7 0-40-0.02-15.5-0.02-31-0.01-46.4v-4.95-2.46c0-5.72 0-11.4-0.01-17.2 0-6.98 0-14 0.01-20.9 0.01-3.56 0.01-7.12 0-10.7-0.01-3.86 0-7.71 0.01-11.6 0-1.13-0.01-2.27-0.01-3.44 0-1.03 0.01-2.05 0.01-3.11 0-0.89 0-1.78 0.01-2.7 0.33-2.88 1.24-4 4.16-4.38z" fill="#48BCC7"/>
<path transform="translate(118 411)" d="m0 0h2.82c1.06 0 2.11-0 3.2-0.01 1.72 0.02 1.72 0.02 3.48 0.03h3.59c2.52 0 5.04 0.01 7.56 0.02 3.81 0.02 7.62 0.02 11.4 0.02 2.45 0.01 4.91 0.01 7.36 0.02h3.41c3.3 0.02 6.61 0.08 9.92 0.17 1.91 0.04 1.91 0.04 3.87 0.09 1.26 0.06 2.53 0.11 3.83 0.17 1.74 0.07 1.74 0.07 3.51 0.13 2.79 0.61 2.79 0.61 4.16 2.38 0.64 2.28 0.9 4.18 0.94 6.54 0.02 0.84 0.04 1.68 0.06 2.54 0.02 0.9 0.03 1.8 0.04 2.73 0.02 0.92 0.04 1.85 0.06 2.8 0.06 2.96 0.1 5.91 0.15 8.87 0.04 2 0.08 4.01 0.12 6.01 0.09 4.91 0.18 9.83 0.26 14.7 7.06 0.85 14 1.13 21.1 1.08 1.06 0 2.12-0.01 3.21-0.01 2.29-0.01 4.57-0.02 6.86-0.03 3.61-0.02 7.23-0.03 10.8-0.03 10.3-0.03 20.5-0.06 30.8-0.11 6.3-0.03 12.6-0.04 18.9-0.05 2.4-0.01 4.79-0.02 7.19-0.03 3.34-0.02 6.68-0.03 10-0.03 1-0.01 1.99-0.02 3.02-0.03h2.74c1.19 0 1.19 0 2.4-0.01 1.92 0.25 1.92 0.25 3.92 2.25 0.24 2.12 0.24 2.12 0.24 4.79v3.07c-0.01 1.67-0.01 1.67-0.02 3.38v3.55c0 3.21-0.01 6.43-0.02 9.64-0.01 3.36-0.02 6.72-0.02 10.1 0 6.36-0.02 12.7-0.04 19.1-0.02 7.24-0.03 14.5-0.04 21.7-0.02 14.9-0.06 29.8-0.1 44.7 3.41 1.7 7.3 1.14 11 1.13h2.73 5.72c2.92-0.01 5.84 0 8.76 0h5.54c0.88 0 1.75 0 2.66 0.01 1.22-0.01 1.22-0.01 2.46-0.01 0.72 0 1.43 0 2.17-0.01 2.13-0.06 2.13-0.06 4.91-1.12 2 2 2 2 2.24 4.35v2.99c0 1.12 0 2.24 0.01 3.39-0.01 1.83-0.01 1.83-0.02 3.69 0 1.26 0 2.51-0.01 3.8 0 2.67-0.01 5.33-0.02 7.99-0.02 4.04-0.02 8.08-0.02 12.1 0 2.59-0.01 5.18-0.02 7.77v3.62c-0.04 7.8-0.46 15.5-1.16 23.3-5.22 1.06-10.2 1.14-15.5 1.13-1.43 0-1.43 0-2.88 0.01h-9.54c-2.29 0.01-4.57 0.01-6.85 0.01-6.19 0.01-12.4 0.01-18.6 0.01-5.17 0.01-10.3 0.01-15.5 0.01-11.5 0.01-23 0.01-34.5 0.01h-2.08-2.09c-11.2 0-22.4 0.01-33.6 0.03-11.5 0.01-23 0.02-34.5 0.02-6.45 0-12.9 0-19.4 0.01-6.06 0.01-12.1 0.01-18.2 0-2.23 0-4.46 0-6.69 0.01-3.03 0.01-6.06 0-9.1-0.01-1.33 0.01-1.33 0.01-2.69 0.02-6.09-0.03-6.09-0.03-9.43-2.26-1.71-8.8-1.13-18-1.1-26.9v-5.45c0.01-3.9 0.01-7.8 0.02-11.7 0.01-6.17 0.02-12.3 0.02-18.5l0.06-42.7c0.02-13 0.04-26.1 0.05-39.1 0-6.13 0.01-12.3 0.03-18.4 0.01-3.82 0.01-7.64 0.01-11.5 0-1.76 0.01-3.53 0.01-5.29 0.07-11.8 0.07-11.8-0.88-23.5-0.85-7.54-0.09-15.2 0.42-22.8 0.23-3.57 0.35-7.07 0.26-10.6 0.1-3.9 0.26-5.4 4.33-5.85z" fill="#6DA7D7"/>
<path transform="translate(393 156)" d="m0 0c1.24-0 1.24-0 2.5-0.01 2.77-0.01 5.54 0.01 8.31 0.02 1.99 0 3.97 0 5.96-0.01 5.4-0 10.8 0.01 16.2 0.03 5.67 0.02 11.3 0.01 17 0.02 9.54 0 19.1 0.01 28.6 0.04 12.2 0.02 24.4 0.04 36.6 0.04 10.5 0 21 0.02 31.6 0.03 3.36 0 6.71 0.01 10.1 0.01 5.31 0.01 10.6 0.02 16 0.03 1.93 0 3.87 0.01 5.8 0.01 10.2 0 20.5 0.17 30.7 0.61 0.96 0.03 1.92 0.07 2.91 0.11 0.88 0.04 1.76 0.08 2.66 0.13 0.78 0.03 1.56 0.07 2.37 0.1 1.79 0.21 1.79 0.21 2.79 1.21 0.25 2.58 0.43 5.13 0.56 7.72 0.04 0.8 0.08 1.61 0.13 2.43 0.47 9.79 0.45 19.6 0.43 29.4v6.28c0 5.61-0.01 11.2-0.01 16.8-0.01 5.9-0.01 11.8-0.01 17.7-0.01 11.1-0.01 22.3-0.02 33.4-0.01 12.7-0.02 25.4-0.02 38.1-0.02 26.1-0.03 52.1-0.06 78.2-2.61 1.31-4.55 1.13-7.48 1.14-1.15 0.01-2.3 0.02-3.48 0.02-1.25 0-2.49 0-3.78 0.01-1.27 0-2.55 0-3.86 0.01h-8.11c-3.46 0-6.91 0.02-10.4 0.03-3.3 0.02-6.61 0.02-9.91 0.02-1.24 0.01-2.48 0.01-3.76 0.02-1.15 0-2.31-0.01-3.5-0.01h-3.08c-2.71-0.25-4.35-0.85-6.67-2.24 0.01-0.55 0.02-1.1 0.02-1.67 0.12-14.2-0.24-28.2-1.02-42.3-2.92-0.84-5.52-1.12-8.56-1.12h-2.76c-1.49 0.01-1.49 0.01-3.01 0.02h-3.18c-2.29 0.01-4.57 0.01-6.85 0.02-3.62 0.02-7.23 0.02-10.8 0.03-8.98 0.01-18 0.03-26.9 0.06-7.59 0.02-15.2 0.03-22.8 0.04-3.56 0.01-7.12 0.02-10.7 0.04-2.19 0-4.38 0-6.57 0.01-0.99 0-1.97 0.01-2.99 0.01-5.38 0-10.6-0.24-15.9-1.11-1-1-1-1-1.12-2.98 0.01-0.88 0.01-1.75 0.01-2.65v-3.04c0.01-1.66 0.01-1.66 0.02-3.35v-3.52c0.01-2.52 0.01-5.05 0.02-7.58 0.01-3.99 0.02-7.98 0.02-12 0.02-9.19 0.04-18.4 0.06-27.6 0.02-8.42 0.04-16.8 0.05-25.3 0-4.62 0.02-9.23 0.03-13.8 0.01-2.4 0.01-4.81 0.01-7.21 0.01-1.66 0.01-1.66 0.02-3.36v-3.03-2.65c0.1-1.98 0.1-1.98-1.12-2.98-2.16-0.23-4.33-0.38-6.5-0.5-1.02-0.07-1.02-0.07-2.07-0.13-4.66-0.27-9.31-0.43-14-0.55-1.69-0.05-1.69-0.05-3.41-0.1-2.26-0.07-4.52-0.12-6.78-0.15-1.04-0.03-2.08-0.06-3.15-0.1-0.94-0.02-1.87-0.04-2.84-0.06-0.75-0.13-1.49-0.27-2.27-0.41-5.73-8.6-3.22-25.1-3.24-35.2-0.01-2.97-0.04-5.93-0.07-8.9 0-1.89-0.01-3.78-0.01-5.67-0.02-0.88-0.03-1.77-0.04-2.68 0-0.82 0.01-1.64 0.01-2.48-0.01-0.72-0.01-1.44-0.01-2.18 1.15-5.96 6.36-5.32 11.4-5.27z" fill="#6FA9D9"/>
<path transform="translate(556 412)" d="m0 0c0.88-0 1.76-0.01 2.67-0.01 0.93 0.01 1.85 0.02 2.8 0.03 0.92-0.01 1.84-0.02 2.79-0.03 0.88 0 1.77 0.01 2.68 0.01 0.81 0 1.62 0 2.45 0.01 2.15 0.26 2.15 0.26 5.15 2.26 0.36 2.68 0.36 2.68 0.35 6.17 0 1.31 0 2.63 0.01 3.99-0.01 1.47-0.03 2.94-0.04 4.41v4.62c-0.01 3.32-0.02 6.65-0.04 9.97-0.03 5.26-0.04 10.5-0.05 15.8-0.01 8.33-0.04 16.7-0.08 25-0.06 14.9-0.09 29.8-0.13 44.7-0.01 5.22-0.03 10.4-0.05 15.7-0.01 3.26-0.02 6.53-0.03 9.79-0.01 1.5-0.01 3.01-0.02 4.52-0.04 7.19-0.02 14.3 0.85 21.5 1.06 8.9-0.05 18-0.77 26.9-0.58-0.01-1.16-0.01-1.75-0.02-2.77-0.02-5.55-0.03-8.32-0.05-0.9-0.01-1.81-0.01-2.74-0.02-5.78-0.02-11.5 0.14-17.3 0.44-15.7 0.8-31.5 0.83-47.2 0.85-2.35 0-4.71 0-7.06 0.01-7.4 0.01-14.8 0.02-22.2 0.02-8.5 0.01-17 0.03-25.5 0.06-6.61 0.02-13.2 0.03-19.8 0.03-3.93 0-7.87 0.01-11.8 0.02-3.68 0.02-7.36 0.02-11 0.01-2 0-3.99 0.02-5.99 0.03-1.18-0.01-2.36-0.01-3.58-0.02-1.03 0-2.06 0.01-3.12 0.01-2.55-0.37-2.55-0.37-4.39-1.76-1.59-2.2-1.55-3.7-1.56-6.4-0.01-0.92-0.01-1.84-0.02-2.8 0.02-0.96 0.03-1.92 0.04-2.91-0.02-1.45-0.02-1.45-0.04-2.92 0.01-0.93 0.01-1.85 0.02-2.8 0-0.85 0-1.69 0.01-2.56 0.48-2.76 1.22-3.5 3.39-5.22 1.95-0.37 1.95-0.37 4.19-0.34h2.55c0.9 0.01 1.81 0.03 2.74 0.04 0.92 0.01 1.85 0.01 2.81 0.02 2.96 0.01 5.93 0.05 8.89 0.09 2.01 0.01 4.02 0.03 6.03 0.04 4.93 0.03 9.86 0.08 14.8 0.15-0.01-0.62-0.01-1.24-0.01-1.87-0.04-15-0.08-30-0.1-45-0.01-7.25-0.02-14.5-0.05-21.7-0.02-6.32-0.03-12.6-0.03-19-0.01-3.35-0.01-6.69-0.03-10-0.01-3.73-0.01-7.46-0.01-11.2-0.01-1.12-0.02-2.23-0.02-3.38v-3.07-2.67c0.25-2.12 0.25-2.12 2.25-4.12 11.1-1.62 22.6-1.15 33.8-1.14h5.35c3.72 0 7.44 0 11.2 0.01 4.7 0 9.4 0 14.1-0.01 18.9-0.02 37.7 0 56.6 1.14-0.01-0.56-0.01-1.12-0.02-1.7-0.04-5.81-0.07-11.6-0.09-17.4-0.01-2.17-0.03-4.34-0.05-6.51-0.02-3.11-0.03-6.22-0.04-9.34-0.01-0.97-0.02-1.94-0.03-2.95v-2.73c-0.01-0.79-0.01-1.59-0.02-2.41 0.52-4.18 3.13-4.2 6.71-4.21z" fill="#48BCC7"/>
<path transform="translate(468,206)" d="m0 0v2l4-2c0.5 1.49 0.5 1.49 1 3 0.66 1.67 1.33 3.34 2 5l-1 1c3.29-0.38 3.29-0.38 6-2 2.34 0.29 4.67 0.62 7 1l1-4h5v2c1.42-0.12 2.83-0.24 4.25-0.38 0.79-0.06 1.58-0.13 2.39-0.21 2.4-0.29 2.4-0.29 4.43-1.54 0.64-0.29 1.28-0.58 1.93-0.87 2.34 0.99 4.67 1.98 7 3l3-2v2c2.97 0.5 2.97 0.5 6 1v-2c0.93-0.29 1.86-0.58 2.81-0.88 3.29-1.01 3.29-1.01 6.19-3.12l4 3 5-4c-0.28 0.9-0.28 0.9-0.56 1.81-0.66 2.35-0.66 2.35 0.56 5.19 0.99 0.5 0.99 0.5 2 1l-2 3c4.13-0.57 4.13-0.57 8-2 0.5 1.49 0.5 1.49 1 3l-1 2c0.99-0.33 1.98-0.66 3-1 3.06 0.12 3.06 0.12 6 1 1.12 2.44 1.12 2.44 2 5 0.68 0.33 1.36 0.66 2.06 1 0.64 0.33 1.28 0.66 1.94 1 0.75 2.63 0.75 2.63 1 5h2v2l2 1c1.21 1.49 1.21 1.49 2.44 3 2.28 3.19 2.28 3.19 5.56 4 0.62 0.95 1.24 1.9 1.88 2.88 2.15 3.17 3.74 4.43 7.12 6.12 1.28-2.38 2.14-4.5 2.88-7.12 1.12-2.88 1.12-2.88 3.19-4.06 0.64-0.27 1.27-0.54 1.93-0.82-0.08 0.56-0.17 1.11-0.25 1.69-0.72 5.37-0.62 9.96 0.25 15.3h-2c0.06 1.11 0.12 2.23 0.19 3.38-0.06 1.19-0.13 2.39-0.19 3.62l-3 2c-0.25-0.78-0.5-1.57-0.75-2.38-1.47-3.07-2.24-3.29-5.25-4.62-1.38-1.29-2.71-2.63-4-4-3.48-3.8-3.48-3.8-8-6-3.52-3.8-6.16-7.75-8.69-12.3-1.56-2.06-2.95-2.74-5.31-3.73l-2-1v-3c-4.72-2.16-7.92-2.72-12.9-1-7.3 2.34-14.1 0.56-21.1-2-0.99-0.56-1.98-1.11-3-1.69-3.52-1.54-5.34-1.27-9-0.31v-2c-6.79-1.13-10.9-1.13-17 2-1.27 0.25-1.27 0.25-2.56 0.5-2.62 0.42-2.62 0.42-5.38 2.06-3.31 1.56-5.45 1.7-9.06 1.44v3c-1.5 1.69-1.5 1.69-3 3-0.56-0.5-1.11-0.99-1.69-1.5-2.69-1.75-4.16-1.76-7.31-1.5v2l4 2-2 2-2-2c-2.35 1.9-2.35 1.9-2.12 5.12 0.04 0.95 0.08 1.9 0.12 2.88 6.83-1.27 6.83-1.27 13.5-3.19 2.5-0.81 2.5-0.81 4.5 0.19 0.39-0.47 0.78-0.95 1.19-1.44 2.69-2.32 5.31-2.4 8.77-2.77 4.15-0.38 4.15-0.38 7.98-1.88 2.7-1.19 4.15-0.78 7-0.1 0.83 0.19 1.67 0.39 2.52 0.58 1.26 0.3 1.26 0.3 2.54 0.61 1.67 0.34 3.33 0.67 5 1v2c0.93-0.19 1.86-0.37 2.81-0.56 6.12-0.88 13-0.91 18.2 2.56 3.43 0.58 6.86 0.98 10.3 1.38 2.69 0.62 2.69 0.62 4.69 3.62 2.56 0.73 2.56 0.73 5 1 0.14 0.76 0.29 1.53 0.44 2.31 0.52 2.77 0.52 2.77 1.56 5.69 2.02 0.73 2.02 0.73 4 1v3h2v2h2v2l4 1c1.25 7.62 1.25 7.62-1 11 0.32 1.34 0.66 2.67 1 4-0.27 2.01-0.59 4.01-1 6 0.99 0.33 1.98 0.66 3 1-0.11 1.44-0.24 2.88-0.38 4.31-0.06 0.8-0.13 1.6-0.21 2.43-0.41 2.26-0.41 2.26-2.41 5.26-0.16 0.82-0.33 1.65-0.5 2.5-0.5 2.5-0.5 2.5-2.5 5.5h-2v3c-0.66 0.41-1.32 0.82-2 1.25-0.66 0.58-1.32 1.15-2 1.75v3.44c0 3.56 0 3.56-1.44 6.12-3.53 1.99-5.64 1.16-9.44 0.12-1.71-0.55-3.42-1.11-5.12-1.68l-1-2c-2.02-0.65-2.02-0.65-4-1l-1 2c0.64 0.1 1.28 0.21 1.94 0.31 0.68 0.23 1.36 0.46 2.06 0.69 0.98 2.93 1.08 4.96 1 8h5l1 3-1 2-8-1v-3h-2.38-4.62v2h-2l-1 2c-0.99 0.5-0.99 0.5-2 1-0.5 1.49-0.5 1.49-1 3 0.76-0.21 1.53-0.41 2.31-0.62 5.13-0.53 9.68 0.59 14.7 1.62 2.37 0.46 4.59 0.79 7 1l2-2h-6c2.36-2.36 3.78-2.49 7-3 3 3.62 3 3.62 3 7l2-1c0.27-0.93 0.54-1.86 0.81-2.81 1.4-3.76 2.96-4.93 6.19-7.19l2-2c0.99-0.33 1.98-0.66 3-1-0.06-0.99-0.12-1.98-0.19-3-0.02-3.81 1.04-6.74 2.53-10.2 1.09-2.98 0.65-4.83-0.34-7.8 2.58-3.3 4.99-3.4 9-4l2-2c0.99 0.33 1.98 0.66 3 1 1.19 3.56 1.19 3.56 2 7-0.76 0.74-1.53 1.49-2.31 2.25-3.15 3.15-3.15 3.15-5.69 6.75 0.21 0.62 0.41 1.24 0.62 1.88 0.13 0.7 0.25 1.4 0.38 2.12-1.65 2.02-3.31 4.02-5 6l1 3h2v2l2 1-2 3 2 1h-2c0.16 0.85 0.33 1.69 0.5 2.56 0.53 3.66 0.9 6.76 0.5 10.4-2.45 2.98-4.8 4.86-8 7-0.25 2.58-0.25 2.58 0 5h2c0.14 1.11 0.29 2.23 0.44 3.38 0.34 3.44 0.34 3.44 1.56 5.62 0.08 1.45 0.11 2.9 0.1 4.35-0.01 0.85-0.01 1.7-0.01 2.58-0.01 0.89-0.02 1.78-0.03 2.69 0 0.9-0.01 1.8-0.01 2.72-0.01 2.22-0.03 4.44-0.05 6.66l4 1c-4.08 0.06-8.17 0.09-12.2 0.12-1.16 0.02-2.32 0.04-3.51 0.06-1.12 0-2.23 0.01-3.38 0.02-1.03 0.01-2.05 0.02-3.11 0.03-2.77-0.23-4.39-0.81-6.75-2.23 0.01-0.83 0.01-0.83 0.02-1.67 0.11-14.1-0.24-28.2-1.02-42.3-2.93-0.84-5.52-1.12-8.57-1.11h-2.76c-1.48 0-1.48 0-3 0.01-1.58 0-1.58 0-3.19 0.01-2.28 0-4.56 0.01-6.84 0.01-3.62 0.02-7.23 0.02-10.8 0.03-8.98 0.01-18 0.04-27 0.06-7.58 0.02-15.2 0.04-22.8 0.05-3.56 0-7.11 0.01-10.7 0.03-2.19 0-4.38 0-6.57 0.01-0.98 0-1.97 0.01-2.98 0.01-5.38 0-10.6-0.24-15.9-1.11-1-1-1-1-1.12-2.97 0.01-0.88 0.01-1.75 0.01-2.65 0.01-1.5 0.01-1.5 0.01-3.02 0.01-1.66 0.01-1.66 0.02-3.35 0-1.16 0-2.31 0.01-3.5 0-2.52 0.01-5.04 0.03-7.56 0.01-3.99 0.02-7.97 0.03-12 0.03-11.3 0.06-22.7 0.11-34 0.02-6.25 0.04-12.5 0.05-18.8 0-3.31 0.01-6.62 0.03-9.94 0.02-3.69 0.03-7.38 0.03-11.1 0.01-1.1 0.02-2.2 0.03-3.34 0-1 0-2-0.01-3.04 0.01-0.87 0.01-1.75 0.01-2.65-0.1-2.51-0.1-2.51-2.24-5.22l5-1c0.67 2 1.33 4 2 6 0.76-0.5 1.53-0.99 2.31-1.5 2.69-1.5 2.69-1.5 5.69-1.5 0.96 0.35 0.96 0.35 1.93 0.71 2.19 0.54 2.19 0.54 4.14-1.11 0.68-0.65 1.36-1.3 2.05-1.98 3.78-3.57 3.78-3.57 5.88-4.62 0.65-2.02 0.65-2.02 1-4 1.09-0.12 2.19-0.25 3.31-0.38 3.86-0.65 5.85-2.62 9.69-2.62zm104 150 1 2-2-1 1-1z" fill="#6EA7D8"/>
<path transform="translate(1074,285)" d="m0 0v2h2v2c0.59 0.24 1.18 0.49 1.79 0.74 8.11 4.63 13.1 17.7 16.2 26.3 1 3.99 1.58 7.91 2 12 0.21 1.13 0.41 2.27 0.62 3.44 2.01 19-2.76 36.7-14.6 51.9-1.33 1.56-2.68 3.1-4.06 4.62-0.96 1.06-0.96 1.06-1.93 2.14-11.7 12.3-26.9 19.7-44 20.1-12.9 0.27-24.2 0.41-36-5.27-0.95-0.42-1.9-0.85-2.88-1.28-12.1-5.93-21.8-14.8-28.1-26.7-0.47-0.83-0.94-1.67-1.42-2.53-8.43-15.7-9.85-34.3-5.04-51.4 5.89-19 16.9-34.8 34.3-44.7 25.4-13.4 58.5-12.9 81.2 6.63z" fill="#5C8FC7"/>
<path transform="translate(556 412)" d="m0 0c0.88-0 1.76-0.01 2.67-0.01 0.93 0.01 1.85 0.02 2.8 0.03 0.92-0.01 1.84-0.02 2.79-0.03 0.88 0 1.77 0.01 2.68 0.01 0.81 0 1.62 0 2.45 0.01 2.15 0.26 2.15 0.26 5.15 2.26 0.34 1.93 0.34 1.93 0.31 4.33-0.01 0.9-0.02 1.8-0.03 2.73-0.02 0.98-0.04 1.96-0.07 2.97-0.02 1.53-0.02 1.53-0.03 3.1-0.05 3.29-0.12 6.58-0.18 9.87-0.04 2.13-0.08 4.26-0.11 6.39-0.11 6.35-0.25 12.7-0.39 19l-0.15 6.63c-0.12 5.31-0.23 10.6-0.35 15.9-0.67-0.03-1.34-0.06-2.03-0.09-22.7-0.95-45.4-1.13-68.1-1.15-5.12-0.01-10.2-0.03-15.4-0.06-3.98-0.02-7.96-0.03-11.9-0.03-1.9 0-3.79-0.01-5.68-0.02-2.62-0.02-5.23-0.02-7.85-0.01-0.77-0.01-1.55-0.02-2.35-0.03-3.93-0.03-3.93-0.03-7.38 1.6-1.72 2.35-1.69 3.8-1.7 6.7-0.02 1.52-0.02 1.52-0.04 3.07v3.37c-0.01 1.17-0.02 2.34-0.03 3.55-0.02 3.21-0.03 6.42-0.04 9.63-0.01 3.36-0.04 6.71-0.06 10.1-0.04 6.35-0.07 12.7-0.1 19.1-0.02 7.23-0.07 14.5-0.11 21.7-0.1 14.9-0.17 29.8-0.22 44.6-9.19 0.68-18.3 1.16-27.5 1.2-1.1 0-2.21 0.01-3.34 0.02-2.3 0.01-4.6 0.01-6.9 0.02-3.53 0.01-7.06 0.04-10.6 0.07-2.25 0-4.5 0.01-6.74 0.01-1.06 0.02-2.11 0.03-3.19 0.04-0.98 0-1.95 0-2.95-0.01-1.28 0.01-1.28 0.01-2.59 0.01-2.69-0.45-3.57-1.22-5.19-3.36-0.39-2.23-0.39-2.23-0.4-4.79-0.01-0.92-0.01-1.84-0.02-2.8 0.02-0.96 0.03-1.92 0.04-2.91-0.02-1.45-0.02-1.45-0.04-2.92 0.01-0.93 0.01-1.85 0.02-2.8 0-0.85 0-1.69 0.01-2.56 0.48-2.76 1.22-3.5 3.39-5.22 1.95-0.37 1.95-0.37 4.19-0.34h2.55c0.9 0.01 1.81 0.03 2.74 0.04 0.92 0.01 1.85 0.01 2.81 0.02 2.96 0.01 5.93 0.05 8.89 0.09 2.01 0.01 4.02 0.03 6.03 0.04 4.93 0.03 9.86 0.08 14.8 0.15-0.01-0.62-0.01-1.24-0.01-1.87-0.04-15-0.08-30-0.1-45-0.01-7.25-0.02-14.5-0.05-21.7-0.02-6.32-0.03-12.6-0.03-19-0.01-3.35-0.01-6.69-0.03-10-0.01-3.73-0.01-7.46-0.01-11.2-0.01-1.12-0.02-2.23-0.02-3.38v-3.07-2.67c0.25-2.12 0.25-2.12 2.25-4.12 11.1-1.62 22.6-1.15 33.8-1.14h5.35c3.72 0 7.44 0 11.2 0.01 4.7 0 9.4 0 14.1-0.01 18.9-0.02 37.7 0 56.6 1.14-0.01-0.56-0.01-1.12-0.02-1.7-0.04-5.81-0.07-11.6-0.09-17.4-0.01-2.17-0.03-4.34-0.05-6.51-0.02-3.11-0.03-6.22-0.04-9.34-0.01-0.97-0.02-1.94-0.03-2.95v-2.73c-0.01-0.79-0.01-1.59-0.02-2.41 0.52-4.18 3.13-4.2 6.71-4.21z" fill="#379EB4"/>
<path transform="translate(107 111)" d="m0 0h3.11c7.53 0.09 7.53 0.09 11 2.38 2.56 0.76 5.1 1.47 7.69 2.12 0.7 0.18 1.4 0.36 2.13 0.55 1.72 0.45 3.45 0.89 5.18 1.33v2c0.6 0.1 1.2 0.2 1.82 0.31 2.18 0.69 2.18 0.69 3.56 2.12 2.33 2.24 4.5 2.86 7.62 3.57l2-1c2-1 2-1 5.25-0.13 1.36 0.56 1.36 0.56 2.75 1.13 1.18 4.12 0.68 6.12-1 10 0.5 0.99 0.5 0.99 1 2 0 1.84-1.17 3.39-2 5 0.95 2.15 0.95 2.15 3 4 2.72 0.32 5.25 0.13 8 0 0.66 0.32 1.32 0.65 2 1v-2c-1.98-0.5-1.98-0.5-4-1l4-1v-3l4-1c-0.49-2.97-0.49-2.97-1-6 0.99 1.31 1.98 2.63 3 4-0.33 0.63-0.66 1.27-1 1.93-1.75 3.61-0.09 6.29 1 10.1 2.93 0.22 2.93 0.22 5-1 2.13 0.93 2.13 0.93 4 2 2.18-1.75 2.95-2.56 3.3-5.38-0.04-0.87-0.07-1.73-0.11-2.62-0.03-0.87-0.05-1.74-0.08-2.63-0.05-1.18-0.05-1.18-0.11-2.37v-3l-5-2c2-3 2-3 4.94-3.76 3.06-0.24 3.06-0.24 6.06 0.76 2.14-0.39 2.14-0.39 4.38-1.07 2.96-0.7 4.42-0.98 7.44-0.31 2.43 1.53 4.19 3.31 6.18 5.38 2.05 1.19 2.05 1.19 4 2 0.66 0.32 1.32 0.65 2 1v3l1-4h2l2-4c0.66 0.32 1.32 0.65 2 1l3-2c0.99 0.32 1.98 0.65 3 1 2.16 6.45 1.47 14.4 0 21 0.93 0.37 0.93 0.37 1.88 0.74 2.56 1.51 2.97 2.56 4.12 5.26 0.58 0.76 1.16 1.52 1.75 2.31 1.25 2.69 1.25 2.69 0.44 6.5-0.39 1.05-0.78 2.1-1.19 3.19h-3c-0.33 0.65-0.66 1.31-1 2-1.98-0.3-3.97-0.59-5.95-0.88-2.25-0.26-2.25-0.26-5.05 0.88h-3c-0.99 0.49-0.99 0.49-2 1-0.99-0.33-1.98-0.66-3-1v2h-5c-0.93 2.6-1.15 3.64-0.06 6.24 0.35 0.58 0.7 1.16 1.06 1.76h2c0.99 2.63 1.98 5.28 3 8-0.99 0.49-0.99 0.49-2 1 0.33 0.65 0.66 1.31 1 2-1.2 0.21-1.2 0.21-2.44 0.43-2.48 0.31-2.48 0.31-3.56 1.57h-3c-0.33-1-0.66-1.99-1-3-1.84-0.81-1.84-0.81-4-1.19-0.72-0.16-1.44-0.32-2.18-0.48-1.67-0.37-1.67-0.37-2.82-0.33-0.49 1.97-0.49 1.97-1 4-1.98-1-1.98-1-4-2 0.5-1.49 0.5-1.49 1-3-0.88-2.66-0.88-2.66-2-5h-2v-6c-1.98 0.32-3.96 0.65-6 1v-2h-2v-6c-1.65 1.31-3.3 2.63-5 4 0.66 0.65 1.32 1.31 2 2l-2 3v3 5c-1.48 0.49-1.48 0.49-3 1v-3h-2c-0.33 0.65-0.66 1.31-1 2l-1-2c-0.65 0.74-0.65 0.74-1.31 1.5-1.69 1.5-1.69 1.5-4.69 1.5v-4c-1.48 0.49-1.48 0.49-3 1-1.48-0.5-1.48-0.5-3-1h-4l-1-4c-4.83-0.19-8.96 0.14-13.7 1.18-4.94 0.96-4.94 0.96-8.19-0.25-2.13-1.94-2.13-1.94-4.57-4.62-2.4-2.63-2.4-2.63-5.87-2.63-0.89 0.11-1.77 0.21-2.69 0.32-1.58 4.32-2.45 8.42-3 13 0.99 0.32 1.98 0.65 3 1-5.81 5.25-13.1 8.76-21 9.26-2.01-0.26-2.01-0.26-4.82-2.45-3.27-4.81-6.19-12-6.19-17.8h-2c-0.05-0.65-0.1-1.29-0.15-1.95-0.45-5.27-1.31-9.98-2.85-15-0.42-1.75-0.81-3.5-1.18-5.26-0.18-0.83-0.36-1.66-0.55-2.51-0.27-2.23-0.27-2.23 0.73-5.23-1.17 0.06-1.17 0.06-2.37 0.12-2.63-0.12-2.63-0.12-4.63-2.12-0.21-3.85-0.18-7.32 1-11h6c-0.06-1.02-0.12-2.03-0.18-3.07 0.21-4.5 1.29-6.9 3.18-10.9v-2h2v-2h2v-2c7.45-3.64 13.7-4.58 21.9-4.38z" fill="#4BBFC9"/>
<path transform="translate(902 281)" d="m0 0c3.38 3.46 5.55 7.5 7.74 11.8 0.46 0.88 0.93 1.76 1.41 2.67 6.35 12.8 7.82 28.3 4.03 42.1-4.6 13.2-14.1 23-26.4 29.2-3.5 1.25-3.5 1.25-7 2-1.07 0.26-1.07 0.26-2.16 0.52-5.05 1.14-10 1.7-15.2 2.04-1.25 0.08-2.5 0.17-3.79 0.26-0.95 0.06-1.9 0.12-2.87 0.18 0.01 1.58 0.01 1.58 0.01 3.2 0.02 3.9 0.03 7.8 0.04 11.7 0.01 1.69 0.02 3.38 0.02 5.07 0.02 2.43 0.02 4.85 0.03 7.28 0 0.76 0.01 1.52 0.01 2.3 0 1.82-0.05 3.64-0.11 5.45-1.74 1.74-4.13 1.13-6.5 1.13-1.11 0.01-2.23 0.01-3.38 0.01-1.76-0.01-1.76-0.01-3.56-0.01-1.17 0-2.34 0-3.55 0.01-1.12 0-2.23 0-3.38-0.01h-3.13c-2.5-0.13-2.5-0.13-4.5-1.13-0.07-17.4-0.12-34.8-0.16-52.3-0.01-8.09-0.03-16.2-0.07-24.3-0.03-7.05-0.05-14.1-0.05-21.2-0.01-3.73-0.02-7.46-0.04-11.2-0.02-4.16-0.02-8.32-0.02-12.5-0.01-1.24-0.02-2.48-0.03-3.76 0-1.13 0-2.26 0.01-3.43-0.01-0.99-0.01-1.97-0.01-2.99 0.37-2.46 0.37-2.46 1.75-4.27 2.21-1.62 3.85-1.69 6.58-1.86 1.47-0.1 1.47-0.1 2.97-0.19 20.7-0.91 44.2-1.83 61.3 12.1z" fill="#5C8FC7"/>
<path transform="translate(725 271)" d="m0 0c1.11-0.03 2.21-0.07 3.35-0.1 1.06-0.01 2.12-0.01 3.21-0.02 0.97-0.01 1.94-0.03 2.94-0.04 2.5 0.6 2.5 0.6 4.21 2.79 1.25 2.72 2.37 5.42 3.38 8.24 0.37 1.03 0.74 2.07 1.12 3.14 0.38 1.09 0.77 2.18 1.17 3.3 0.39 1.12 0.79 2.24 1.2 3.39 2.55 7.19 5.02 14.4 7.35 21.6 0.97 2.79 2.09 5.47 3.27 8.17 1.54 3.7 2.81 7.5 4.11 11.3 0.62 1.78 1.24 3.57 1.86 5.35 0.46 1.33 0.46 1.33 0.93 2.68 2.04 5.89 4.12 11.8 6.2 17.6 0.69 1.93 1.37 3.86 2.04 5.78 2.14 6.03 4.35 12 6.77 17.9 1.13 2.89 2.08 5.82 3.03 8.77 1.48 4.32 3.19 8.54 4.87 12.8 0.99 2.73 0.99 2.73 0.99 4.73-6.53 0.87-12.7 1.07-19.3 0.75-1.32-0.04-1.32-0.04-2.67-0.08-0.85-0.04-1.7-0.08-2.57-0.13-0.76-0.03-1.52-0.06-2.3-0.09-2.76-0.58-4.13-1.49-6.15-3.45-0.94-2.21-0.94-2.21-1.56-4.75-0.24-0.92-0.48-1.84-0.73-2.79-0.23-0.95-0.47-1.91-0.71-2.9-0.47-1.9-0.95-3.79-1.44-5.68-0.2-0.84-0.41-1.68-0.62-2.55-1.25-3.11-2.13-4.42-4.94-6.33-3.34-0.55-6.64-0.47-10-0.39-0.97 0-1.94 0.01-2.94 0.01-3.1 0.03-6.19 0.08-9.29 0.13-2.1 0.02-4.2 0.04-6.3 0.05-5.15 0.05-10.3 0.12-15.4 0.2-0.14 0.88-0.27 1.76-0.41 2.66-0.88 4.97-2.25 9.79-3.59 14.6-0.27 1.01-0.55 2.03-0.83 3.07-0.26 0.96-0.52 1.93-0.79 2.92-0.24 0.88-0.48 1.75-0.73 2.66-0.65 2.04-0.65 2.04-1.65 3.04-18.8 0.84-18.8 0.84-27-1l-2-3c0.53-2.38 0.53-2.38 1.65-5.28 0.63-1.66 0.63-1.66 1.27-3.36 0.35-0.91 0.35-0.91 0.71-1.83 1.31-3.37 2.58-6.76 3.85-10.2 0.28-0.74 0.56-1.48 0.85-2.24 3.59-9.52 6.96-19.1 10.4-28.7 0.67-1.91 1.35-3.82 2.03-5.72 1.03-2.92 2.06-5.83 3.1-8.75 2.53-7.15 5.07-14.3 7.62-21.4 0.73-2.05 1.46-4.09 2.19-6.14 1.05-2.94 2.1-5.89 3.14-8.83 0.97-2.71 1.94-5.42 2.9-8.13 0.3-0.83 0.6-1.67 0.91-2.53 1.27-3.57 2.52-7.15 3.65-10.8 0.34-1.08 0.68-2.17 1.04-3.28 0.27-0.91 0.54-1.82 0.82-2.75 2.66-6.12 10.3-4.51 15.9-4.54z" fill="#5C8FC7"/>
<path transform="translate(1430 271)" d="m0 0c0.89 0 1.78 0.01 2.7 0.01 1.38 0.01 1.38 0.01 2.78 0.03 0.94 0 1.88 0 2.84 0.01 2.31 0.01 4.61 0.03 6.91 0.05 2.3 5.53 2.36 10.7 2.45 16.6 0.03 1 0.05 2.01 0.07 3.05l0.12 6.36c0.05 3.26 0.12 6.52 0.19 9.77 0.05 2.07 0.08 4.13 0.12 6.19 0.02 0.98 0.05 1.95 0.07 2.96 0.02 1.35 0.02 1.35 0.04 2.73 0.01 0.8 0.03 1.59 0.04 2.41-0.1 1.95-0.1 1.95-1.1 3.95 3.54-3.37 6.36-6.75 9.07-10.8 3.89-5.76 7.99-11.3 12.2-16.9 2.82-3.71 5.57-7.46 8.26-11.3 0.87-1.23 0.87-1.23 1.76-2.49 1.13-1.59 2.25-3.19 3.36-4.8 0.51-0.72 1.02-1.45 1.55-2.19 0.45-0.64 0.9-1.29 1.36-1.95 2.5-2.79 4.57-3.55 8.3-3.85 1.6 0.02 1.6 0.02 3.23 0.03 1.74 0.01 1.74 0.01 3.52 0.02 1.2 0.02 2.41 0.04 3.65 0.05 1.84 0.02 1.84 0.02 3.71 0.03 3.01 0.02 6.03 0.06 9.04 0.1 0.5 1.48 0.5 1.48 1 3-1.12 1.99-1.12 1.99-3 4.44-0.73 0.97-1.47 1.95-2.23 2.95-0.43 0.56-0.86 1.13-1.31 1.7-4.9 6.4-9.72 12.9-14.5 19.3-1.26 1.69-2.52 3.37-3.78 5.05-1.73 2.31-3.44 4.63-5.14 6.96-0.52 0.69-1.04 1.38-1.58 2.09-2.75 3.69-2.75 3.69-3.37 8.11 0.31 0.78 0.63 1.56 0.95 2.36 0.33 0.81 0.66 1.62 0.99 2.45 0.44 0.92 0.88 1.85 1.33 2.8 0.53 1.13 1.07 2.26 1.62 3.43 0.69 1.44 1.38 2.88 2.06 4.32 0.44 0.92 0.88 1.84 1.33 2.79 6.1 12.8 12.3 25.6 18.7 38.2 1.4 2.77 2.8 5.54 4.19 8.31 0.31 0.61 0.62 1.22 0.94 1.85 2.78 5.54 5.33 11.2 7.87 16.8-4.56 0.22-9.12 0.43-13.7 0.62-1.94 0.1-1.94 0.1-3.92 0.2-1.25 0.05-2.5 0.1-3.78 0.15-1.15 0.06-2.3 0.11-3.48 0.16-3.23-0.14-5.3-0.58-8.14-2.13-1.15-2.41-1.97-4.54-2.75-7.06-3.14-9.2-7.51-17.5-12.2-25.9-0.4-0.73-0.81-1.46-1.23-2.21-1.58-2.82-3.16-5.64-4.76-8.44-6.01-10.6-6.01-10.6-6.01-13.4-6.03 2.33-10 8.04-13 13.6-2.91 7.43-2.08 16.1-1.94 24-0.02 2.92-0.48 5.64-1.02 8.5-0.04 2.1-0.04 4.21 0 6.31 0.04 1.9 0.05 3.79 0 5.69-1 1-1 1-3.04 1.13-19.8-0.06-19.8-0.06-24-2.13-0.04-17.3-0.08-34.6-0.1-51.9-0.01-8.04-0.02-16.1-0.05-24.1-0.02-7-0.03-14-0.03-21-0.01-3.71-0.01-7.42-0.03-11.1-0.01-4.14-0.01-8.27-0.01-12.4-0.01-1.23-0.02-2.47-0.02-3.74v-3.4-2.97c0.24-2.32 0.24-2.32 2.24-4.32 2.96-1 5.67-1.12 8.77-1.1z" fill="#5C8FC7"/>
<path transform="translate(121 411)" d="m0 0c1.61-0.01 1.61-0.01 3.26-0.03h3.54c1.2 0 2.39 0 3.63-0.01 2.54 0 5.09-0.01 7.63 0 3.88 0 7.76-0.02 11.6-0.05h7.42c1.73-0.01 1.73-0.01 3.5-0.03 6.47 0.04 11.4 0.68 17.2 3.39-3 2-3 2-6 2l-1 2h-6l4 4 2-2c2.38 0.32 2.38 0.32 5 1 0.76 0.19 1.53 0.38 2.31 0.57 0.56 0.14 1.12 0.29 1.69 0.43v5h2c1.41 2.82 1.17 5.24 1.19 8.38 0.01 1.14 0.03 2.28 0.04 3.46-0.32 4.44-1.83 6.58-4.29 10.2-2.76 4.18-3.05 7.02-2.94 11.9 0.64 0.17 1.28 0.34 1.93 0.52 0.83 0.24 1.66 0.48 2.51 0.73 1.23 0.35 1.23 0.35 2.49 0.71 2.07 1.04 2.07 1.04 2.86 2.9 0.21 2.14 0.21 2.14 0.21 6.14 0.64 0.27 1.28 0.54 1.94 0.82 2.06 1.18 2.06 1.18 3.06 4.18h2c4 6.5 4 6.5 4 11 1.05 0.25 2.1 0.5 3.19 0.75 5.06 1.47 7.97 4.01 10.9 8.38 2.97 3.73 6.61 4.03 11.2 4.65 2.89 0.28 2.89 0.28 6.52 0.22 3.46 0 5.99 0.75 9.19 2v2h2c-0.49 1.98-0.49 1.98-1 4h5v3c-0.78 0.09-1.57 0.17-2.37 0.25-2.73 0.49-2.73 0.49-4 2.63-0.89 2.28-0.89 2.28 0.37 5.12-2.66 0-4.5-0.19-7-1l-2-2h-4v2h-2l-1-4c-0.66 0.05-1.33 0.1-2.01 0.15-7.29 0.29-7.29 0.29-11-2.02-0.99-1.05-0.99-1.05-2-2.13-2.86-2.85-5.78-2.75-9.69-3.34-2.31-0.66-2.31-0.66-4.31-3.66-0.45 0.5-0.91 0.99-1.37 1.5-1.63 1.5-1.63 1.5-3.63 1.5v-2c-0.54 0.29-1.08 0.58-1.64 0.88-1.08 0.56-1.08 0.56-2.17 1.12-0.71 0.38-1.42 0.75-2.15 1.13-2.04 0.87-2.04 0.87-5.04 0.87l-1 2c-1.07-0.08-2.14-0.16-3.25-0.25-3.76-0.18-3.76-0.18-5.5 2.19-3.68 3.37-8.4 3.1-13.2 3.06-0.99-0.33-1.98-0.66-3-1v2h-4l-1 2c-0.51-0.41-1.03-0.82-1.56-1.25-4.09-2.93-8.38-5.94-13.4-6.75l1-4-4-1c-0.49-2.47-0.49-2.47-1-5h-2v-2c-2.47 0.5-2.47 0.5-5 1v-2h2c0.15-0.61 0.29-1.23 0.44-1.87 0.56-2.13 0.56-2.13 1.56-4.13h2v-2c1.49-0.49 1.49-0.49 3-1l1-7c-0.93 0.09-1.86 0.17-2.81 0.25-3.19-0.25-3.19-0.25-4.88-2.18-0.43-0.68-0.86-1.36-1.31-2.07-0.99-0.33-1.98-0.66-3-1v13h-1v-6h-2v5h-1c-1.18-7.68-1.06-15.2-0.96-23 0.04-5.66-0.14-11.2-0.81-16.8-0.8-7.62-0.1-15.3 0.42-23 0.23-3.56 0.35-7.06 0.26-10.6 0.15-5.68 2.14-5.86 7.24-5.88z" fill="#6FA9D9"/>
<path transform="translate(261,565)" d="m0 0c1.62 2.44 1.62 2.44 3 5 3.07 1.12 5.98 1.82 9.19 2.38 2.6 0.89 3.99 2.61 5.81 4.62-0.99 1.32-1.98 2.64-3 4l5 1 2 6c0.99-0.33 1.98-0.66 3-1 0.5-1.49 0.5-1.49 1-3l1 1v-3c1.49 0.5 1.49 0.5 3 1l1-1c1.49 0.5 1.49 0.5 3 1h3l2 2c0.99-0.5 0.99-0.5 2-1-1.49-0.5-1.49-0.5-3-1-1.64-3.91-2.4-7.81-3-12 3 0 3 0 4.62 1.19 1.69 2.22 2.01 4.07 2.38 6.81l4 1v4c1.66 0.34 3.33 0.67 5 1 0.93 0.19 1.86 0.37 2.81 0.56 2.64 0.36 4.64 0.36 7.25 0.19 3.94 0.25 3.94 0.25 6.75 2.69 1.09 1.27 1.09 1.27 2.19 2.56 1.49 0.5 1.49 0.5 3 1 2.59 2.59 2.28 4.49 2.36 8.03 0.5 2.18 0.5 2.18 2.72 3.55 3.54 1.72 6.32 1.92 10.2 2.11 1.26 0.06 2.51 0.13 3.8 0.2 0.96 0.03 1.91 0.07 2.89 0.11 0.17 4.82 0.33 9.64 0.48 14.5 0.06 1.64 0.11 3.27 0.17 4.91 0.64 18.3 0.64 18.3-0.65 24.6l-3 2-1-2-1 3h-67v-2c5.17-1.06 10.1-1.12 15.4-1.06 0.83 0 1.66 0.01 2.51 0.01 2.04 0.01 4.07 0.03 6.11 0.05l-4-2v-2c-5.92-1.63-11-3.01-17-1-1.34-0.32-2.67-0.66-4-1-2.08-0.09-4.16-0.13-6.23-0.13-1.22 0-2.43-0.01-3.68-0.01-1.9 0.01-1.9 0.01-3.84 0.02-1.25-0.01-2.5-0.01-3.79-0.02-6.26 0.01-12.3 0.22-18.5 1.14-3.38 0-5.83-0.87-9-2 1-3 1-3 3.12-5.5 0.62-0.83 1.24-1.65 1.88-2.5l-1-3-5-1v-3c-0.9-0.19-0.9-0.19-1.81-0.38-2.19-0.62-2.19-0.62-5.19-2.62-0.99 0.25-0.99 0.25-2 0.5-0.99 0.25-0.99 0.25-2 0.5-3.01-2.01-3.63-2.84-5-6l3-2c-3.06-2.59-3.06-2.59-7-3l-1-4h2v-6c1.98 0.33 3.96 0.66 6 1 0.1-0.64 0.21-1.28 0.31-1.94 0.23-0.68 0.46-1.36 0.69-2.06 1.49-0.5 1.49-0.5 3-1v-2c0.99 0.33 1.98 0.66 3 1l1-1c1.66-0.36 3.33-0.7 5-1v-2c4.75-1 4.75-1 7-1 0.99-0.33 1.98-0.66 3-1 0.74 0.16 1.49 0.33 2.25 0.5 3.47 0.63 6.31 0.16 9.75-0.5l1-1h-4c0-4 0-4 0.56-6.06 0.66-2.14 0.66-2.14-0.56-4.94h2l1-2-1-1 1-2c-2.48-0.99-2.48-0.99-5-2v-2h-2l-2-4h-2v-2h2v-2c3.48-1.74 7.33-1.02 11 0z" fill="#6EA7D8"/>
<path transform="translate(1295 271)" d="m0 0c0.69-0 1.38-0.01 2.09-0.01 2.28-0.01 4.56 0 6.84 0.02h4.75c3.31 0 6.63 0.01 9.94 0.03 4.26 0.02 8.52 0.02 12.8 0.01 3.27 0 6.54 0.01 9.81 0.02h4.7c2.2 0 4.39 0.01 6.58 0.03 1.24 0 2.49 0.01 3.78 0.01 2.91 0.26 2.91 0.26 4.91 2.26 0.18 2.61 0.24 5.09 0.19 7.69v2.11c-0.04 4.48-0.49 8.77-1.19 13.2v2h-45c-1.82 4.57-2.27 6.77-2.25 11.5 0 1.11-0.01 2.21-0.01 3.35 0.26 3.14 1.04 5.28 2.26 8.15 1.53-0.02 1.53-0.02 3.09-0.05 3.78-0.05 7.55-0.08 11.3-0.11 1.64-0.02 3.27-0.04 4.91-0.06 2.34-0.04 4.69-0.06 7.04-0.07 0.73-0.02 1.47-0.03 2.22-0.05 2.07 0 2.07 0 5.41 0.34 2.24 3.35 2.24 4.42 2.2 8.33-0.01 1.02-0.01 2.05-0.02 3.11-0.03 1.61-0.03 1.61-0.05 3.25-0.01 1.08-0.02 2.17-0.03 3.28-0.02 2.68-0.06 5.36-0.1 8.03-4.13 1-7.98 1.1-12.2 1.06-0.68 0-1.36 0-2.06-0.01-2.15-0.01-4.3-0.03-6.46-0.05-2.85-0.02-5.69-0.04-8.54-0.06-1.26-0.01-2.53-0.02-3.83-0.04-2.77-0.23-2.77-0.23-3.88 1.1-0.98 7.89-1.1 15.9-1.12 23.8-0.01 0.8-0.01 1.59-0.02 2.41-0.34 3.69-0.34 3.69 1.14 6.78 1.51 0.12 3.02 0.18 4.52 0.21 0.96 0.02 1.93 0.04 2.92 0.06 1.04 0.01 2.08 0.03 3.16 0.05 1.6 0.03 1.6 0.03 3.23 0.06 3.41 0.07 6.82 0.13 10.2 0.18 2.3 0.05 4.61 0.09 6.92 0.14 5.67 0.1 11.3 0.2 17 0.3 0.83 3.1 1.12 5.78 1.1 8.99 0 1.4 0 1.4-0.01 2.83-0.01 1.45-0.01 1.45-0.02 2.93-0.01 0.99-0.01 1.97-0.02 2.98-0.01 2.43-0.03 4.85-0.05 7.27-3.54 1.18-6.27 1.09-10 1.04-0.71-0.01-1.41-0.02-2.15-0.02-2.34-0.03-4.68-0.07-7.03-0.1-1.63-0.03-3.25-0.05-4.88-0.07-3.41-0.04-6.82-0.09-10.2-0.14-4.38-0.07-8.76-0.13-13.1-0.18-3.36-0.05-6.72-0.09-10.1-0.14-1.62-0.02-3.23-0.05-4.85-0.07-2.25-0.02-4.5-0.06-6.76-0.1-1.28-0.02-2.56-0.03-3.88-0.05-3-0.17-3-0.17-5-1.17-0.07-17.3-0.12-34.6-0.15-51.9-0.02-8.02-0.04-16-0.07-24.1-0.03-6.99-0.05-14-0.06-21 0-3.71-0.01-7.41-0.03-11.1-0.03-4.13-0.03-8.27-0.03-12.4-0.01-1.23-0.02-2.46-0.03-3.73 0-1.13 0.01-2.25 0.01-3.41 0-1.46 0-1.46-0.01-2.96 0.37-2.45 0.37-2.45 1.71-4.26 2.7-1.92 5.23-1.56 8.49-1.56z" fill="#5C8FC7"/>
<path transform="translate(1047 299)" d="m0 0c10.7 6.79 17.2 17.2 20.1 29.5 2.3 13.2 0.89 27.4-5.63 39.1-6.44 8.42-12.5 13.9-23.1 15.7-12.4 1.37-25.5 0.68-35.8-7.13-3.54-2.91-3.54-2.91-5.09-4.55v-2c-0.91-0.35-0.91-0.35-1.84-0.7-5.78-3.48-7.47-12.9-9.03-19-1-4.82-1.25-8.4-0.13-13.2 0.11-0.95 0.21-1.91 0.32-2.89 1.48-13 6.89-23.3 16.7-32.1 12.8-8.95 29.8-10 43.6-2.63z" fill="#FBFEFF"/>
<path transform="translate(1146 271)" d="m0 0c1.29 0.01 1.29 0.01 2.61 0.02h2.75c3.01 0 6.02 0.02 9.03 0.03 2.08 0.01 4.16 0.01 6.24 0.01 5.49 0.01 11 0.03 16.5 0.05 5.59 0.02 11.2 0.03 16.8 0.04 11 0.02 22 0.06 33 0.1 1.55 2.95 2.25 4.91 2.23 8.26 0 0.79 0 1.58-0.01 2.39-0.01 0.82-0.02 1.63-0.03 2.47 0 1.24 0 1.24-0.01 2.5-0.04 6.1-0.04 6.1-1.18 8.38-0.83 0.02-1.66 0.05-2.51 0.07-3.75 0.12-7.49 0.24-11.2 0.37-1.3 0.04-2.6 0.07-3.95 0.12-1.25 0.04-2.5 0.08-3.79 0.12-1.15 0.04-2.3 0.08-3.49 0.11-2.52 0.17-4.6 0.56-7.02 1.21-0.75 13.2-1.13 26.2-1.05 39.4 0.02 2.86 0.03 5.72 0.04 8.58 0.02 8.11 0.06 16.2 0.11 24.3 0.02 5 0.04 10 0.05 15 0.01 1.9 0.02 3.79 0.03 5.69 0.02 2.63 0.03 5.25 0.03 7.88 0.01 0.78 0.02 1.56 0.03 2.36-0.01 3.8-0.08 5.49-2.24 8.73-2.87 0.33-2.87 0.33-6.44 0.25-1.88-0.04-1.88-0.04-3.79-0.08-13.6-0.61-13.6-0.61-16.8-2.17 0.01-0.63 0.02-1.26 0.03-1.92 0.06-5.11-0.08-10.1-0.51-15.2-0.69-9.27-0.75-18.5-0.84-27.8-0.02-1.89-0.04-3.77-0.06-5.66-0.05-4.91-0.1-9.83-0.15-14.8-0.05-5.03-0.11-10.1-0.16-15.1-0.11-9.84-0.21-19.7-0.31-29.5-2.81-1.41-5.11-1.08-8.25-1.03-1.25 0.01-2.5 0.03-3.78 0.04-2.65 0.03-5.29 0.07-7.94 0.12-1.25 0.01-2.5 0.02-3.78 0.03-1.15 0.02-2.3 0.03-3.49 0.05-2.76-0.21-2.76-0.21-4.76-2.21-0.26-2.12-0.26-2.12-0.27-4.72v-2.82c0-0.98 0.01-1.96 0.02-2.96-0.01-0.98-0.02-1.95-0.02-2.96v-2.82c0.01-0.86 0.01-1.72 0.01-2.6 0.61-5.01 4.22-4.36 8.41-4.37z" fill="#5C8FC7"/>
<path transform="translate(218 459)" d="m0 0c0.96-0 1.93-0.01 2.92-0.01 3.18-0.01 6.35-0.01 9.53-0.01 2.21-0.01 4.42-0.01 6.62-0.01 4.63-0.01 9.25-0.01 13.9-0.01 5.94 0 11.9-0.01 17.8-0.03 4.55-0.01 9.11-0.01 13.7-0.01 2.18 0 4.37-0.01 6.56-0.02 3.06-0.01 6.11 0 9.16 0 0.91 0 1.82-0.01 2.76-0.01 6.25 0.03 6.25 0.03 8.48 2.26 0.24 2.12 0.24 2.12 0.24 4.79 0 1.01 0 2.03 0.01 3.07-0.02 1.67-0.02 1.67-0.03 3.38v3.55c0 3.21-0.01 6.42-0.02 9.64-0.01 3.36-0.01 6.72-0.02 10.1 0 6.36-0.02 12.7-0.04 19.1-0.02 7.24-0.03 14.5-0.04 21.7-0.02 14.9-0.06 29.8-0.1 44.7 3.41 1.7 7.3 1.14 11 1.13h2.73 5.72c2.92-0.01 5.84 0 8.76 0h5.54 2.66c1.22 0 1.22 0 2.46-0.01h2.17c2.13-0.06 2.13-0.06 4.91-1.12 2 2 2 2 2.24 4.06-0.01 0.85-0.01 1.69-0.02 2.57v2.91c-0.01 1.04-0.02 2.08-0.03 3.15 0 1.06 0 2.13-0.01 3.22-0.01 3.4-0.03 6.81-0.06 10.2-0.01 2.3-0.02 4.61-0.03 6.91-0.02 5.66-0.05 11.3-0.09 17h-1v-25c-2.19 0.08-4.38 0.16-6.63 0.25-8.08-0.02-8.08-0.02-11.2-1.88-2.64-2.87-2.94-4.53-3.18-8.37-0.32-1.34-0.65-2.68-1-4-0.78-0.16-0.78-0.16-1.57-0.32-3.29-0.93-6.3-2.3-9.43-3.68v-1c-1.33 0.03-1.33 0.03-2.69 0.06-2.96-0.06-5.45-0.39-8.31-1.06-0.73-0.09-1.45-0.17-2.19-0.25-1.81-0.75-1.81-0.75-2.88-3.25-0.31-0.83-0.62-1.65-0.93-2.5-1.49-0.5-1.49-0.5-3-1-1.02-2-2.02-4-3-6-1.49-0.99-1.49-0.99-3-2 0.63 6.58 2.32 9.54 7 14-2.32 0.68-2.32 0.68-5 1-1.02-0.98-2.03-1.98-3-3-1.34 0.3-2.68 0.63-4 1-2.25-0.94-2.25-0.94-4-2l1 4c-0.81 0.12-1.61 0.24-2.44 0.37-1.27 0.31-1.27 0.31-2.56 0.63l-1 2c-3.94-2.76-5.93-5.71-8-10 1.66-1.67 3.33-3.34 5-5 0.8-1.04 1.6-2.07 2.43-3.13 0.85-0.95 1.69-1.9 2.57-2.87h3c-0.05-1.06-0.09-2.11-0.13-3.19 0.13-3.81 0.13-3.81 1.13-6.25 2.01-5.16 1.07-10.3 0-15.6-3.15-21.6-3.15-21.6-0.88-28.4 1.25-5.19 0.05-9.5-1.12-14.6-0.34-1.67-0.68-3.34-1-5-1.98-0.66-3.96-1.32-6-2v-2c-1.09 0.25-1.09 0.25-2.2 0.5-9.6 2.03-9.6 2.03-14.8-0.5v-2l-13-1c0.49-1.49 0.49-1.49 1-3-3.52-1.18-6.71-1.16-10.4-1.18-1.48-0.02-2.96-0.05-4.43-0.07-2.32-0.04-4.65-0.07-6.97-0.08-2.24-0.02-4.49-0.06-6.73-0.1-0.69 0-1.38 0-2.1 0.01-3.29-0.09-5.15-0.4-7.85-2.35-1.73-2.48-2.03-3.58-1.94-6.56 0.01-0.8 0.02-1.6 0.03-2.42 0.04-0.83 0.07-1.65 0.11-2.5 0.01-0.85 0.03-1.69 0.05-2.55 0.05-2.07 0.12-4.14 0.2-6.2h-8v-1c4.86-1.26 9.64-1.15 14.6-1.15z" fill="#6BA6D5"/>
<path transform="translate(300 228)" d="m0 0c3.15 0.97 4.57 0.23 7.44-1.25 2.07 3.43 2.3 6.21 2.41 10.2 0.04 1.27 0.08 2.54 0.12 3.84 0.03 1.4 0.06 2.8 0.09 4.19 0.04 1.47 0.07 2.94 0.11 4.41 0.43 17.4 0.38 34.9 0.34 52.3-0.01 4.43-0.02 8.85-0.02 13.3-0.01 8.59-0.03 17.2-0.05 25.8l-4 1c0.24-0.8 0.24-0.8 0.49-1.61 0.62-2.93 0.6-5.65 0.57-8.64-0.01-1.08-0.02-2.16-0.03-3.27-0.01-0.82-0.02-1.64-0.03-2.48-0.63-0.13-1.26-0.25-1.9-0.38-2.1-0.62-2.1-0.62-3.73-2.56-1.6-3.56-2.19-6.91-2.75-10.8-0.72-2.65-1.63-3.46-3.62-5.3-3.21-5.41-4.46-10.5-4.63-16.7-0.46-2.78-1.62-4.09-3.37-6.26-0.69-2.75-0.69-2.75-1-5-2.95 0.71-2.95 0.71-4.32 2.44-2.28 2.11-4.76 2.61-7.68 3.56-0.5 0.99-0.5 0.99-1 2l-3-3-2 2c-0.99-0.5-0.99-0.5-2-1v2c-0.93-0.28-0.93-0.28-1.88-0.56-2.16-0.68-2.16-0.68-4.12 0.56-2.84-1.35-4.62-2.39-6.32-5.06-0.68-1.94-0.68-1.94-0.68-3.94l-2-3c-0.08-2.33-0.09-4.67 0-7-2.86-0.12-2.86-0.12-5 0.5-2 0.5-2 0.5-5 0.5v11h2c-0.23-0.93-0.46-1.86-0.69-2.81-0.31-3.19-0.31-3.19 1.13-5.06 0.51-0.38 1.03-0.75 1.56-1.13 2.08 1.72 2.95 2.85 3.81 5.44 0.22 3.04 0.04 4.14-1.81 6.56-3.13 1.75-3.13 1.75-6 3l-3-3 1-2c-0.64-0.27-1.28-0.54-1.94-0.81-2.06-1.19-2.06-1.19-3.06-4.19-0.99-0.33-1.98-0.66-3-1-1.4-2.74-1.98-4.01-2-7 1.72-5 4.07-9.41 8-13 2.35-2.28 4.17-4.26 6-7h3c0.46-0.93 0.46-0.93 0.94-1.87 2.06-4.13 2.06-4.13 3.93-5 2.53-1.34 3.63-2.73 5.13-5.13v-2c5.24-3.17 5.24-3.17 8.81-2.37 2.19 1.37 2.19 1.37 3.19 4.37 0.99 0.33 1.98 0.66 3 1l1-1c1.32-0.68 2.66-1.35 4-2l2 3-1 2 8-1v-8h2c0.1-0.64 0.2-1.28 0.31-1.94 0.23-0.68 0.45-1.36 0.69-2.06 4.42-1.47 7.48 0.26 11.6 2.25z" fill="#47BAC7"/>
<path transform="translate(463 483)" d="m0 0c0.83-0 1.65-0 2.51-0.01 2.74 0 5.48 0.03 8.22 0.05 1.93 0.01 3.86 0.01 5.79 0.01 4.05 0.01 8.11 0.03 12.2 0.06 5.12 0.04 10.2 0.06 15.4 0.07 17.4 0.04 34.9 0.1 52.3 0.75 1.03 0.04 2.05 0.07 3.1 0.11 4.24 0.19 8.2 0.53 12.4 1.43 0 1.07-0.01 2.14-0.01 3.24-0.02 10.1-0.03 20.2-0.04 30.3l-0.03 15.6c-0.01 5.01-0.01 10-0.02 15 0 1.91 0 3.81-0.01 5.72-0.04 13.6-0.04 13.6 1.11 27.2 0.38 8.35-0.32 16.7-1 25-15.8 0.18-15.8 0.18-23-1v-1h10l-1-3c1.98-0.33 3.96-0.66 6-1-0.17-0.76-0.33-1.53-0.5-2.31-0.5-2.69-0.5-2.69-0.5-5.69-0.42-2.53-1.05-4.07-2.44-6.25-1.97-3.47-3.15-6.77-3.56-10.8 0.62-2.02 1.28-4.02 2-6-0.29-4.23-0.64-6.46-3-10-0.32-2.08-0.32-2.08-0.42-4.45-0.03-0.85-0.07-1.69-0.11-2.57-0.03-0.88-0.06-1.76-0.1-2.67-0.04-0.89-0.07-1.78-0.11-2.7-0.1-2.2-0.18-4.41-0.26-6.61h-1c-1.3-10.2-1.37-21.1 1.61-31 0.59-2.96 0.12-5.6-0.3-8.58-0.15-1.14-0.3-2.29-0.45-3.47-0.56-2.97-0.56-2.97-2.71-4.2-0.71-0.23-1.42-0.46-2.15-0.7-0.62-0.28-1.23-0.56-1.86-0.85-7.65-3.13-14.7-2.19-22.7-1.27-2.42 0.12-2.42 0.12-5.42-0.88-1.5-0.09-3-0.13-4.5-0.13h-2.35c-2.34 0.05-2.34 0.05-5.15 1.13h-2c-0.99 0.33-1.98 0.66-3 1-2.01-0.28-4.01-0.6-6-1v-2c-1.26 0.31-2.52 0.62-3.81 0.94-1.07 0.26-1.07 0.26-2.15 0.52-1.7 0.45-3.37 0.98-5.04 1.54-0.74 0.14-1.49 0.29-2.25 0.44-3.31 0.67-6.51 1.61-9.75 2.56-0.22 1.07-0.22 1.07-0.44 2.17-0.85 4.28-1.71 8.55-2.56 12.8l2 1-5 1 5 2v3c0.39 0.78 0.78 1.57 1.19 2.37 0.81 2.63 0.81 2.63-0.32 5.38-2.03 2.44-2.78 2.96-5.87 3.25h-3c-0.81 0.08-1.61 0.16-2.44 0.25-3.39-0.33-4.42-1.71-6.56-4.25h2c3.65-7.05 6.97-15.4 5.56-23.5-0.18-0.5-0.37-0.99-0.56-1.5-0.81-0.12-1.61-0.25-2.44-0.38-0.84-0.2-1.69-0.41-2.56-0.62l-1-2c-1.66-1.02-3.32-2.02-5-3l-2-2v15l-2-1c-0.11-2.92-0.19-5.83-0.25-8.75-0.03-0.83-0.07-1.65-0.1-2.5-0.02-0.8-0.03-1.6-0.04-2.42-0.03-1.1-0.03-1.1-0.07-2.22 1.43-6.63 6.96-6.67 12.7-6.58z" fill="#48BBC8"/>
<path transform="translate(500,156)" d="m0 0c11.4-0.02 22.7-0.04 34.1-0.05 5.28-0.01 10.6-0.01 15.8-0.03 5.11-0.01 10.2-0.01 15.3-0.01 1.93-0.01 3.86-0.01 5.79-0.02 10.4-0.02 20.9 0.11 31.3 0.55 1.44 0.06 1.44 0.06 2.9 0.12 0.88 0.04 1.75 0.08 2.66 0.13 0.77 0.03 1.55 0.07 2.35 0.11 1.79 0.2 1.79 0.2 2.79 1.2 1.86 16.7 1.15 33.8 1.13 50.6 0 4.26 0 8.52 0.01 12.8 0 7.15 0 14.3-0.01 21.4-0.01 8.21 0 16.4 0 24.6 0.01 7.1 0.01 14.2 0 21.3 0 4.21 0 8.43 0.01 12.6 0.01 17.2-0.04 34.4-1.14 51.6h-1c-0.1-1.11-0.21-2.23-0.31-3.38-0.23-1.19-0.46-2.39-0.69-3.62-1.49-0.99-1.49-0.99-3-2-2-2.93-3.35-5.5-4-9h-2c-0.12-0.64-0.25-1.28-0.38-1.94-0.2-0.68-0.41-1.36-0.62-2.06l-2-1c-0.48-2.75-0.84-5.42-1.12-8.19-0.09-0.75-0.18-1.51-0.27-2.29-1.18-10.8-1.18-10.8 0.39-15.5-0.16-0.82-0.33-1.65-0.5-2.5-0.5-2.5-0.5-2.5 0.5-5.5-0.32-1.34-0.66-2.67-1-4-0.09-2.2-0.13-4.41-0.13-6.62 0-1.32-0.01-2.64-0.01-3.99 0-1.42 0.01-2.84 0.02-4.27v-2.17c0.14-44 0.14-44 7.12-53 0.63-2.11 0.63-2.11 1-4l1-1c1.41-8.44 0.98-17 0.62-25.5-0.04-1.05-0.08-2.1-0.13-3.18-0.21-4.55-0.51-8.86-1.49-13.3h-2c-0.25-0.76-0.5-1.53-0.75-2.31-1.36-2.93-2.57-3.99-5.25-5.69l1-4c-7.24-2.59-14-3.17-21.6-3.32-0.93-0.02-1.87-0.04-2.83-0.06-3.06-0.07-6.11-0.12-9.16-0.18-1.04-0.02-2.08-0.05-3.15-0.07-16.1-0.33-32.2-0.46-48.3-0.33-0.73 0-1.46 0.01-2.22 0.01-1.95 0.01-3.9 0.03-5.85 0.05-2.88-0.1-2.88-0.1-4.88-1.1v-2z" fill="#6BA6D5"/>
<path transform="translate(503,242)" d="m0 0 1 2h3l1-2v3c0.64 0.12 1.28 0.25 1.94 0.38 1.02 0.3 1.02 0.3 2.06 0.62 0.5 0.99 0.5 0.99 1 2 0.99-0.33 1.98-0.66 3-1v2l4-2v2l2 1v4l4 1 2-4 3 2 5-3v2h2c-0.28 0.96-0.28 0.96-0.56 1.94-0.15 0.68-0.29 1.36-0.44 2.06l1 1 2-2v2l4 1v2l4-1v2h-2v2h-2v3 3h2l1-6c3 1 3 1 5 3v3l2 1h-2c-0.5 1.49-0.5 1.49-1 3l-3-2v2l2 1h-2l-1 3c-0.5 0.99-0.5 0.99-1 2h2v2l2 1h-2l-1 3-2-2-1 6-4-2 1 3h-5v3c0.99 0.5 0.99 0.5 2 1h-2l-1 3-2-2h-3l-1 1 1 3-2 3c-0.99-0.33-1.98-0.66-3-1v-2l-2 2-1-2-4 2v-2h-2c-0.5 0.99-0.5 0.99-1 2l-2-4c1.38-2 1.38-2 3-4h2l-3-3c-0.99 0.5-0.99 0.5-2 1-1.68-0.28-3.35-0.61-5-1l-1 4v-4c-1.49-0.5-1.49-0.5-3-1 0.99-0.5 0.99-0.5 2-1-1.11-0.45-2.23-0.91-3.38-1.38-3.62-1.62-3.62-1.62-5.62-3.62l-2 2c-3-3.62-3-3.62-3-7-0.68-0.1-1.36-0.21-2.06-0.31-3.61-0.85-8.27-2.02-10.9-4.69-0.04-2.33-0.04-4.67 0-7 0.64-0.12 1.28-0.25 1.94-0.38 0.68-0.2 1.36-0.41 2.06-0.62 1.15-1.93 1.15-1.93 1-4h3l-2-2-2 1-2-5-2 2v-7l2 2c0.41-0.5 0.82-0.99 1.25-1.5 2.94-2.52 7.01-1.5 10.8-1.5l-1 3 2-1c0.41-2.32 0.74-4.66 1-7 1.13-0.14 2.27-0.29 3.44-0.44 3.37-0.17 3.37-0.17 4.56-1.56z" fill="#6CA7D6"/>
<path transform="translate(428,224)" d="m0 0h1v18h21c0.78 3.88 1.13 6.87 1.13 10.8 0 1.71 0 1.71 0.01 3.45 0 1.85 0 1.85-0.01 3.73 0 1.92 0 1.92 0.01 3.89 0 3.45 0 6.91-0.01 10.4 0 2.13-0.01 4.26-0.01 6.39-0.01 20.2-0.17 40.3-1.12 60.4h9v1c-3.67 0.03-7.33 0.05-11 0.06-1.03 0.01-2.06 0.02-3.12 0.03-5.72 0.02-11.2-0.14-16.9-1.09-1.93-1.93-1.13-4.81-1.14-7.37 0.01-1.37 0.01-1.37 0.01-2.78v-2.91c-0.01-3.2-0.01-6.4 0-9.6 0-2.23 0-4.46-0.01-6.69 0-4.68 0-9.37 0.01-14 0.01-5.97 0-11.9 0-17.9-0.01-4.61-0.01-9.22 0-13.8 0-2.19 0-4.39-0.01-6.59-0.01-11.8 0.11-23.5 1.14-35.3z" fill="#5C8FC7"/>
<path transform="translate(218 459)" d="m0 0c0.96-0 1.93-0.01 2.92-0.01 3.18-0.01 6.35-0.01 9.53-0.01 2.21-0.01 4.42-0.01 6.62-0.01 4.63-0.01 9.25-0.01 13.9-0.01 5.94 0 11.9-0.01 17.8-0.03 4.55-0.01 9.11-0.01 13.7-0.01 2.18 0 4.37-0.01 6.56-0.02 3.06-0.01 6.11 0 9.16 0 0.91 0 1.82-0.01 2.76-0.01 6.25 0.03 6.25 0.03 8.48 2.26 0.22 2.33 0.22 2.33 0.19 5.22 0 1.03-0.01 2.06-0.02 3.13-0.02 1.62-0.02 1.62-0.05 3.27-0.01 1.09-0.02 2.18-0.03 3.3-0.02 2.69-0.05 5.38-0.09 8.08-12.2-0.04-24.4-0.1-36.6-0.19-5.66-0.04-11.3-0.07-17-0.09-5.46-0.01-10.9-0.05-16.4-0.09-2.08-0.02-4.17-0.03-6.25-0.03-2.92 0-5.83-0.03-8.75-0.06-0.87 0.01-1.73 0.01-2.62 0.02-5.85-0.11-5.85-0.11-9-2.47-1.67-2.39-1.94-3.53-1.85-6.42 0.01-0.8 0.02-1.6 0.03-2.42 0.04-0.83 0.07-1.65 0.11-2.5 0.01-0.85 0.03-1.69 0.05-2.55 0.05-2.07 0.12-4.14 0.2-6.2h-8v-1c4.86-1.26 9.64-1.15 14.6-1.15z" fill="#5C8FC7"/>
<path transform="translate(581,298)" d="m0 0 4 1 2 7c-0.76 0.74-1.53 1.49-2.31 2.25-3.15 3.15-3.15 3.15-5.69 6.75 0.21 0.62 0.41 1.24 0.62 1.88 0.19 1.05 0.19 1.05 0.38 2.12-1.65 2.02-3.31 4.02-5 6l1 3h2v2c0.99 0.5 0.99 0.5 2 1l-2 3c0.99 0.5 0.99 0.5 2 1h-2c0.25 1.27 0.25 1.27 0.5 2.56 0.53 3.66 0.9 6.76 0.5 10.4-2.45 2.98-4.8 4.86-8 7-0.25 2.58-0.25 2.58 0 5h2c0.14 1.11 0.29 2.23 0.44 3.38 0.34 3.44 0.34 3.44 1.56 5.62 0.08 1.45 0.11 2.9 0.1 4.35-0.01 0.85-0.01 1.7-0.01 2.58-0.01 0.89-0.02 1.78-0.03 2.69 0 0.9-0.01 1.8-0.01 2.72-0.01 2.22-0.03 4.44-0.05 6.66l4 1c-4.08 0.06-8.17 0.09-12.2 0.12-1.16 0.02-2.32 0.04-3.51 0.06-1.12 0-2.23 0.01-3.38 0.02-1.03 0.01-2.05 0.02-3.11 0.03-2.77-0.23-4.39-0.81-6.75-2.23 0.01-0.82 0.01-0.82 0.02-1.65 0.11-14.5-0.27-28.9-1.02-43.4l-4-2v-3h5l1-2h-6c2.36-2.36 3.78-2.49 7-3 3 3.62 3 3.62 3 7 0.99-0.5 0.99-0.5 2-1 0.27-0.93 0.54-1.86 0.81-2.81 1.4-3.76 2.96-4.93 6.19-7.19l2-2c0.99-0.33 1.98-0.66 3-1-0.06-0.99-0.12-1.98-0.19-3-0.02-3.81 1.04-6.74 2.53-10.2 1.09-2.98 0.65-4.83-0.34-7.8 2.58-3.3 4.99-3.39 9-4l1-2zm-9 58 1 2-2-1 1-1z" fill="#6FA7D9"/>
<path transform="translate(386,156)" d="m0 0h114v2c1.14-0.01 2.28-0.01 3.45-0.02 20.8-0.08 41.7-0.09 62.5 0.34 1.85 0.04 3.71 0.07 5.56 0.1 2.59 0.05 5.19 0.1 7.79 0.17 0.75 0.01 1.5 0.02 2.27 0.03 5.18 0.14 10.6 0.51 15.4 2.38 0.99 1.49 0.99 1.49 2 3-0.75 1.73-1.51 3.45-2.33 5.15-1.01 2.79-0.42 5.04 0.33 7.85h2c1.51 5.81 2.22 11 2 17-1.9-2.85-2.36-4.14-2.94-7.38-1.41-6.59-3.87-9.81-9.34-13.6-1.86-1.18-1.86-1.18-4.72-2.02v-2c-0.7 0-1.39 0-2.11 0.01-6.57 0.02-13.1 0.03-19.7 0.04-3.38 0.01-6.75 0.01-10.1 0.03-3.88 0.01-7.76 0.01-11.6 0.02-1.22 0-2.43 0.01-3.69 0.01h-3.39c-0.99 0.01-1.98 0.01-3 0.01-2.37-0.12-2.37-0.12-4.37-1.12-2.33-0.04-4.67-0.04-7 0v1c-0.76 0.06-1.52 0.12-2.3 0.18-1.49 0.13-1.49 0.13-3.01 0.26-0.99 0.08-1.97 0.16-2.99 0.24-2.79 0.24-2.79 0.24-5.7 1.32-4.8 1.04-9.32 1.01-14.2 0.69-0.71-0.04-1.42-0.07-2.15-0.11-3.67-0.23-5.54-0.5-8.66-2.58 0.99-0.33 1.98-0.66 3-1-0.74-0.08-1.49-0.16-2.25-0.25-3.29-0.9-4.5-2.26-6.75-4.75-2.39-1.2-3.99-1.17-6.66-1.25-0.96-0.03-1.92-0.06-2.91-0.1-1.98-0.06-3.96-0.11-5.95-0.17-5.73-0.2-11.3-0.7-17-1.5-8.71-1.2-17.4-1.25-26.1-1.19-2.64 0.02-5.28 0.02-7.92 0.02-1.69 0.01-3.38 0.02-5.07 0.02-0.78 0-1.57 0-2.37 0.01-4.09 0.01-4.09 0.01-8.09 0.73-2.56 0.58-3.71-0.24-5.9-1.57v-2z" fill="#6FA7D9"/>
<path transform="translate(858,295)" d="m0 0c17.7-0.67 17.7-0.67 23.9 4.66 6.08 6.34 8.17 12.7 8.45 21.3-0.26 8.54-2.31 14.9-8.38 21-6 4.53-9.82 5.13-17.2 5.06-1.26-0.01-2.53-0.02-3.83-0.02-0.96-0.02-1.93-0.03-2.92-0.04-1.2-2.41-1.13-3.91-1.13-6.6 0-0.96-0.01-1.91-0.01-2.89 0-1.04 0.01-2.07 0.01-3.13s0-2.12-0.01-3.21c0-2.24 0.01-4.48 0.01-6.72 0-3.44 0-6.87-0.01-10.3 0-2.17 0.01-4.34 0.01-6.52-0.01-1.55-0.01-1.55-0.01-3.13 0-0.95 0.01-1.91 0.01-2.89v-2.55c0.13-2.05 0.13-2.05 1.13-4.05z" fill="#FBFEFF"/>
<path transform="translate(450,241)" d="m0 0 1 2c0.99 0.33 1.98 0.66 3 1 1.08 3.23 0.71 5.11 0.24 8.41-0.54 5.72-0.18 11.5 0.01 17.2 0.03 1.28 0.05 2.56 0.08 3.88 0.25 7.8 1.2 15 3.12 22.6 0.75 3.99 0.2 6.3-1.45 9.95h2l1-2c0.45 1.13 0.91 2.27 1.38 3.44 1.19 3.61 1.19 3.61 3.62 4.56v2h2c4.66 4.32 4.66 4.32 6 7 0.95-0.17 1.9-0.33 2.88-0.5 3.12-0.5 3.12-0.5 5.12-0.5 1.38 1.19 1.38 1.19 3 3 0.72 0.74 1.44 1.49 2.19 2.25 2.27 3.45 2.13 5.7 1.81 9.75-4.94 1.15-9.96 1.54-15 2v1c13.9 0.23 13.9 0.23 27.8-0.77 11.8-1.21 11.8-1.21 16.2 1.77 3.1 0.2 3.1 0.2 6.5 0.06 6.21-0.16 6.21-0.16 9.5 0.94v2c-9.36 0.02-18.7 0.04-28.1 0.05-4.35 0.01-8.69 0.01-13 0.03-4.2 0.01-8.41 0.01-12.6 0.01-1.59 0.01-3.19 0.01-4.79 0.02h-6.75c-1.27 0.01-2.55 0.01-3.87 0.01-4.3-0.13-8.58-0.65-12.8-1.12v-100z" fill="#6FA9D9"/>
<path transform="translate(1170 512)" d="m0 0c2.99 1.83 5.74 3.94 8.38 6.25 1.14-0.5 1.14-0.5 2.31-1 2.69-1 2.69-1 5.69-1-0.62 0.91-1.24 1.82-1.88 2.75-2.92 5.03-3.42 10.6-4.12 16.2-0.5-0.99-0.5-0.99-1-2h-2c-0.05-1.15-0.09-2.31-0.13-3.5-0.68-5.3-3.14-8.78-6.87-12.5-5.7-4-11.6-3.3-18.4-2.73-4.41 0.89-6.95 2.41-10.2 5.45-1.41 1.28-1.41 1.28-3.41 1.28-0.25 0.56-0.5 1.11-0.76 1.69-1.24 2.31-1.24 2.31-3.14 4.59-8.6 11.1-15.2 30.3-13.4 44.2 0.15 1.29 0.3 2.58 0.45 3.91 1.13 4.7 2.89 7.37 7.01 9.92 8.06 3.33 14.1 4.34 22.7 1.86 2.66-1.45 2.95-2.48 4.19-5.19 0.34-0.65 0.68-1.3 1.03-1.96 3.25-6.25 4.1-10.9 3.97-18-3.47-1.49-3.47-1.49-7-3 0.32-0.99 0.66-1.98 1-3 3.62-0.06 7.24-0.09 10.9-0.13 1.03-0.01 2.07-0.03 3.13-0.05 1.48-0.01 1.48-0.01 2.99-0.02 1.36-0.01 1.36-0.01 2.76-0.03 2.25 0.23 2.25 0.23 4.25 2.23-0.91 0.54-1.82 1.07-2.76 1.63-5.13 4.25-5.77 11.2-7.24 17.4-0.58 2.13-1.16 4.25-1.76 6.37-0.41 1.55-0.83 3.09-1.24 4.63-1.66-0.66-3.3-1.32-5-2v-3c-0.48 0.4-0.95 0.8-1.44 1.21-6.45 5.17-14.4 9.04-22.8 8.7-8.45-1.47-16.4-5.47-21.8-12.4-4.72-7.78-4.53-15.8-2.93-24.6 3.36-12.6 9.45-25 19-34 0.55-0.54 1.1-1.07 1.66-1.63 9.75-8.82 25.3-14.8 38-8.62z" fill="#47B9C6"/>
<path transform="translate(200,531)" d="m0 0c1.02 1.18 1.02 1.18 2.06 2.38 3.31 2.95 5.67 3.67 9.94 4.62 0.99 0.33 1.98 0.66 3 1l-2 8c2.35 1.43 3.48 2.09 6.25 1.62 0.58-0.2 1.16-0.41 1.75-0.62l-1 4 5-1c-0.99-1.49-0.99-1.49-2-3l4-2c0.5 0.99 0.5 0.99 1 2 0.51 0.41 1.02 0.82 1.55 1.24 2.14 2.59 1.74 4.65 1.64 7.95-0.04 1.63-0.04 1.63-0.08 3.29-0.04 0.83-0.07 1.66-0.11 2.52l-3-2-2 2v-2h-2c-0.5-0.99-0.5-0.99-1-2l-5 4v-2c-1.2-0.08-2.39-0.16-3.62-0.25-4.3-0.52-6.9-2.16-10.4-4.75-0.99-0.33-1.98-0.66-3-1-0.58-0.97-1.16-1.94-1.75-2.94-2.77-3.76-4.75-4.2-9.25-5.06v-2c-0.6 0.23-1.2 0.45-1.81 0.69-0.72 0.1-1.45 0.2-2.19 0.31-1.75-1.44-1.75-1.44-3-3-0.76 0.5-1.53 0.99-2.31 1.5-2.69 1.5-2.69 1.5-5.69 1.5-0.99-0.33-1.98-0.66-3-1l-2 2c-0.66 0.14-1.32 0.29-2 0.44-2.39 0.43-2.39 0.43-4 3.56l2 1-2 2v3c-0.33 2.33-0.67 4.67-1 7v3l-1 2c-0.99-0.33-1.98-0.66-3-1v-2c-0.99-0.96-0.99-0.96-2-1.94-2-2.06-2-2.06-2-5.06-0.41-0.76-0.82-1.53-1.25-2.31-0.75-2.69-0.75-2.69 0.81-5.63 1.21-1.51 1.21-1.51 2.44-3.06 0.42-0.55 0.85-1.11 1.28-1.68 2.15-2.74 3.35-4.2 6.72-5.32l1 2c0.27-0.76 0.54-1.53 0.81-2.31 1.47-3.33 2.97-4.86 5.94-6.88 3.11-1.12 5.96-0.87 9.25-0.81 0.68-0.19 1.36-0.37 2.06-0.56 2.84-0.64 5.14-0.12 7.94 0.56 0.5 0.99 0.5 0.99 1 2l2-2c1.65-0.71 3.32-1.38 5-2z" fill="#6EA7D8"/>
<path transform="translate(1044 532)" d="m0 0c1.2 0 1.2 0 2.42 0.01 0.83 0.01 1.65 0.02 2.5 0.03 0.84 0 1.68 0 2.55 0.01 2.07 0.01 4.13 0.03 6.2 0.05 1.31 4.23 0.26 7.23-1.12 11.3-0.23 0.7-0.46 1.4-0.7 2.12-0.71 2.19-1.45 4.38-2.18 6.57-0.45 1.37-0.89 2.73-1.34 4.1-3.37 10.3-3.37 10.3-5.41 15.3-1.44 4.17-2.21 8.21-2.25 12.6 1.05 1.27 1.05 1.27 3.38 1.12 2.73-0.01 2.73-0.01 5.62-1.12l1-5h2l1-4c-0.46 4.74-0.96 8.25-4 12-3.02 2.29-5.94 3.85-9.75 4.37-2.25-0.37-2.25-0.37-5.25-2.37-3.26-9.78-0.37-19.8 2.81-29.2 0.72-2.2 1.43-4.4 2.15-6.61 0.34-1.04 0.69-2.08 1.04-3.15 1.42-4.33 2.72-8.68 4-13-6.46-1.33-6.46-1.33-13-1-11 7.49-16 25.1-18.4 37.4-0.7 4.8-0.39 8.08 1.44 12.6 2.37 0.85 3.56 1.17 5.95 0.24 2.23-1.35 3.5-2.71 5.11-4.74 1.95-2.44 3.28-3.72 5.94-5.5-1.77 6.28-6.67 11.4-12 15-4.26 0.48-6.49 0.27-10.3-1.75-3-2.51-4.4-4.35-4.99-8.23-0.09-16.2 7.97-32.4 18.8-44 2.78-2.24 5.06-3.1 8.49-4 0.63-0.18 1.26-0.36 1.92-0.54 2.2-0.49 4.15-0.58 6.41-0.56z" fill="#379EB4"/>
<path transform="translate(1240,532)" d="m0 0c-0.48 3.66-1.28 7.09-2.36 10.6-0.27 0.88-0.54 1.77-0.81 2.67-0.28 0.9-0.55 1.8-0.83 2.72-0.49 1.64-0.98 3.29-1.46 4.93-0.5 1.65-0.99 3.3-1.48 4.95-0.38 1.3-0.38 1.3-0.78 2.62-1.72 5.77-3.6 11.4-5.71 17.1-0.66 2.8-0.32 4.66 0.43 7.41 4.79 0.23 4.79 0.23 9-2-0.12 1.75-0.12 1.75-1 4-3.06 2.56-5.16 3.88-9.12 4.44-3.31-0.51-4.5-1.12-6.88-3.44-2.68-9.39-0.06-17.8 3.25-26.6 0.82-2.29 1.64-4.57 2.45-6.86 0.4-1.08 0.79-2.17 1.19-3.29 1.61-4.68 2.9-9.43 4.11-14.2-4.28-2.86-7.16-1.95-12.1-0.98-5 1.67-6.59 4.41-8.93 8.98-0.32 0.63-0.65 1.26-0.98 1.91-8.49 16.3-8.49 16.3-9.62 34.2 0.68 2.19 0.68 2.19 2.6 4.91 3.64 1.21 5.36 1.21 9 0 0.7-1.32 1.37-2.65 2-4 0.99-0.5 0.99-0.5 2-1-1.94 4.52-4.32 7.27-8.88 9.25-4.19 1.01-7.45 1.63-11.4-0.44-3.28-3.39-4.06-7.26-4.13-11.9 0.26-9.9 4.32-18.2 8.82-26.8 0.37-0.71 0.74-1.42 1.12-2.16 3.56-6.6 7.13-12.2 14.4-15l2 1v-2c4.05-1.35 7.75-1.02 12-0.94 11.5-0.24 11.5-0.24 12-0.06z" fill="#389DB4"/>
<path transform="translate(797 512)" d="m0 0c1.11 0 1.11 0 2.23 0.01 0.74-0.02 1.48-0.03 2.24-0.05 2.14 0 2.14 0 5.76 0.36 2.09 3.13 2.31 4.32 2.57 7.94 0.18 2.45 0.35 4.74 0.96 7.12 0.51 2.1 0.54 3.85 0.47 6-0.05 5.37 0.47 10.6 1 15.9 0.16 1.73 0.32 3.47 0.48 5.2 0.18 1.89 0.35 3.78 0.52 5.68 0.09 0.91 0.17 1.83 0.26 2.77 0.39 4.17 0.79 8.26 1.74 12.4 2.63-2.62 4.63-5.35 6.5-8.56 1.5-2.44 1.5-2.44 3.07-3.94 1.87-1.95 2.53-3.97 3.43-6.5 0.5-0.99 0.5-0.99 1-2h2c0.25-0.7 0.5-1.4 0.75-2.12 1.42-3.25 3.23-5.98 5.25-8.88 0.5 1.49 0.5 1.49 1 3-0.93 1.81-0.93 1.81-2.43 3.88-2.63 3.73-5.04 7.52-7.38 11.4-2.75 4.53-5.69 8.76-8.94 12.9-3.24 4.2-5.61 8.11-7.39 13.1-0.86 1.64-0.86 1.64-3.86 2.64-2.54-3.81-2.89-7.43-3.5-11.9-0.12-0.91-0.25-1.83-0.38-2.77-2.5-19-3.21-38.2-4.12-57.4h-2c-0.02 0.65-0.05 1.29-0.07 1.95-0.49 7.78-2.41 14.7-4.93 22l-2-4h2c-0.18-0.6-0.37-1.19-0.56-1.81-0.44-2.19-0.44-2.19 0.56-5.19h2c-0.27-1.2-0.27-1.2-0.56-2.44-0.14-0.84-0.29-1.69-0.44-2.56l1-1c-0.09-1.69-0.24-3.38-0.43-5.06-0.16-1.38-0.16-1.38-0.31-2.79-0.09-0.71-0.17-1.42-0.26-2.15l-5-1c2.56-2.55 4.28-2.29 7.77-2.32z" fill="#46B8C6"/>
<path transform="translate(865 512)" d="m0 0c1.23-0.01 2.47-0.03 3.74-0.04 3.13 0.21 4.79 0.58 7.38 2.23-0.88 0.01-0.88 0.01-1.79 0.01-2.77 0.27-4.71 0.73-7.21 1.99-5.02 7.06-6.31 16.8-8.1 25.2-0.74 3.14-1.66 5.84-2.9 8.79-0.32 1.3-0.61 2.62-0.87 3.93-3.74 17.7-3.74 17.7-6.13 20.1-0.78 3.01-1.19 5.88-1 9 2.3 2.96 2.3 2.96 5 5v2c-3.62 0.08-7.24 0.14-10.9 0.19-1.03 0.02-2.07 0.05-3.13 0.07-1.48 0.02-1.48 0.02-2.99 0.03-0.91 0.02-1.82 0.03-2.76 0.05-0.74-0.11-1.48-0.23-2.25-0.34-0.65-0.99-1.32-1.98-2-3 1.64-0.22 1.64-0.22 3.32-0.44 2.33-0.69 3.38-1.06 4.64-3.17 0.47-1.47 0.89-2.96 1.26-4.45 0.87-3.25 1.96-6.38 3.07-9.56 3.11-9.13 5.31-18.4 7.53-27.8 0.41-1.71 0.82-3.43 1.23-5.14 0.99-4.14 1.98-8.28 2.95-12.4h-2c-0.33 1.32-0.65 2.64-1 4h-2c-0.65 1.32-1.32 2.64-2 4 0-3 0-3 1-5h2c0.18-0.59 0.35-1.19 0.52-1.8 1.48-4.82 2.9-8.5 6.48-12.2 2.95-1.47 5.61-1.17 8.88-1.19z" fill="#47B9C6"/>
<path transform="translate(1389,505)" d="m0 0c-0.4 1.22-0.8 2.44-1.21 3.7-3.25 10.1-6.32 20.1-8.18 30.5-1.23 6.67-3.16 13-5.36 19.4-0.35 1.04-0.7 2.08-1.07 3.15-8.39 24.7-8.39 24.7-10.2 28.3-2.32 0.41-4.66 0.74-7 1-1.01-3.12-0.99-4.91 0.06-8 0.39-1.18 0.39-1.18 0.78-2.37 0.29-0.84 0.58-1.68 0.88-2.55l0.89-2.67c0.63-1.89 1.26-3.78 1.9-5.66 1.65-4.89 3.27-9.79 4.88-14.7 0.32-0.96 0.64-1.92 0.96-2.91 4.46-13.6 8.23-27.3 11.6-41.2-2.97-0.33-5.94-0.66-9-1 3.28-3.28 4.19-3.48 8.56-4.12 9.54-1.45 9.54-1.45 11.4-0.88z" fill="#379EB4"/>
<path transform="translate(1282,503)" d="m0 0 2 1c-0.67 4.56-1.74 8.91-3.06 13.3-0.33 1.1-0.33 1.1-0.66 2.21-3.9 13-8.13 25.9-12.3 38.7-0.92 2.86-1.85 5.72-2.78 8.57-0.67 2.08-1.35 4.16-2.03 6.24-0.41 1.28-0.83 2.56-1.24 3.83-0.56 1.7-0.56 1.7-1.12 3.42-0.88 2.53-0.88 2.53-0.79 4.68 1.26 0.04 2.52 0.08 3.81 0.12 0.71 0.03 1.42 0.05 2.15 0.08 2.35-0.07 2.35-0.07 5.04-2.2-0.23 3.25-1.06 4.06-3.56 6.25-4.4 2.24-6.55 2.3-11.4 1.75-2.56-0.94-2.56-0.94-4-3 0.34-7.44 2.39-14 4.75-21 0.73-2.22 1.46-4.45 2.19-6.67 0.35-1.08 0.71-2.16 1.07-3.27 1.32-4.09 2.55-8.19 3.74-12.3 1.41-4.87 2.86-9.72 4.37-14.6 1.87-6.01 3.42-12.1 4.88-18.2-2.31-0.99-4.62-1.98-7-3 2.99-2 5.11-2.69 8.56-3.56 3.82-0.95 3.82-0.95 7.44-2.44z" fill="#379EB4"/>
<path transform="translate(941,515)" d="m0 0 3 3c-0.27 0.64-0.54 1.28-0.81 1.94-1.54 3.97-2.87 8.01-4.19 12.1 0.83-0.02 1.66-0.05 2.52-0.07 1.09-0.02 2.17-0.04 3.29-0.05 1.08-0.03 2.16-0.05 3.27-0.08 2.92 0.2 2.92 0.2 5.92 2.2-2.95 0.86-5.5 1.08-8.56 1-2.94-0.08-4.59 0.05-7.44 1-0.94 1.85-0.94 1.85-1.54 4.16-0.25 0.85-0.5 1.71-0.76 2.6-0.25 0.9-0.5 1.81-0.76 2.74-0.39 1.31-0.39 1.31-0.78 2.65-1.41 4.91-2.62 9.82-3.69 14.8-0.66 2.87-1.57 5.63-2.53 8.42-0.34 0.99-0.69 1.99-1.04 3.02-0.3 0.86-0.59 1.72-0.9 2.6-1.16 3.48-0.71 5.46 0 9 4.22 0.2 7.17-0.2 11-2v-2c1.29-1.38 2.63-2.71 4-4l2-2c-0.61 3.31-1.78 5.39-3.81 8.06-0.5 0.67-1.01 1.35-1.52 2.04-2.58 2.94-4.77 4.65-8.55 5.71-4.29 0.26-7.48-0.57-10.9-3.19-1.45-1.97-1.83-3.19-2.19-5.62 0.5-2.72 0.5-2.72 1.44-6.06 0.17-0.62 0.34-1.24 0.52-1.89 0.67-2.35 1.35-4.7 2.04-7.05 0.31-1.07 0.62-2.14 0.95-3.25 6.42-22 6.42-22 9.05-29.8l-10-1v-3h12c0.25-1.36 0.5-2.72 0.75-4.12 0.99-4.47 2.34-7.35 5.25-10.9 0.99-0.33 1.98-0.66 3-1z" fill="#379DB4"/>
<path transform="translate(975 532)" d="m0 0c1.67 0.06 1.67 0.06 3.38 0.12 1.85 3.14 2.2 5.38 2 9 3.41 0.26 3.41 0.26 7 0 0.65-0.99 1.32-1.98 2-3h2v-2c3.1-2.51 5.25-3.89 9.24-4.43 1.37 0.21 1.37 0.21 2.76 0.43 2 3 2 3 1.74 5.88-0.68 2.87-1.56 5.43-2.74 8.12-3.38-0.54-5.09-1.05-8-3-0.5-1.48-0.5-1.48-1-3h-3c-10.6 12-14.9 27.3-19.7 42.2-0.29 0.87-0.57 1.74-0.86 2.63-0.25 0.78-0.5 1.56-0.75 2.36-0.66 1.8-0.66 1.8-1.66 2.8-1.67 0.05-3.34 0.05-5 0-1.14-1.52-1.14-1.52-2-4 0.57-2.65 1.23-5.01 2.12-7.56 0.24-0.71 0.47-1.43 0.71-2.16 1.64-4.91 3.44-9.76 5.26-14.6 1.34-3.94 2.29-7.95 3.24-12 0.67-2.67 0.67-2.67 1.91-6.1 0.89-3.01 0.89-4.64-0.24-7.57-1.97-1.36-1.97-1.36-4-2 2-2 2-2 5.62-2.12z" fill="#379EB4"/>
<path transform="translate(723,312)" d="m0 0h2c2.81 7.74 5.55 15.5 8.19 23.3 0.37 1.09 0.37 1.09 0.75 2.21 1.74 5.16 2.86 10.1 4.06 15.5h-27c-1.19-4.77-0.1-7.53 1.49-12 0.27-0.76 0.53-1.53 0.81-2.32 0.85-2.44 1.71-4.88 2.58-7.32 0.57-1.66 1.14-3.31 1.72-4.96 4.16-11.9 4.16-11.9 5.4-14.4z" fill="#FBFEFF"/>
<path transform="translate(561 365)" d="m0 0c0.97-0.03 1.94-0.06 2.95-0.09 0.93-0.01 1.86-0.01 2.82-0.02 0.86-0.02 1.72-0.03 2.6-0.05 2.25 0.47 2.25 0.47 4.04 2.21 1.36 2.53 1.57 3.96 1.51 6.81-0.01 0.84-0.02 1.69-0.03 2.56-0.03 0.87-0.05 1.74-0.08 2.64-0.02 1.33-0.02 1.33-0.04 2.69-0.03 2.19-0.08 4.38-0.15 6.56 1.33 0.33 2.64 0.66 4 1-4.08 0.06-8.16 0.1-12.2 0.13-1.74 0.02-1.74 0.02-3.52 0.05-1.11 0-2.23 0.01-3.38 0.02-1.02 0.01-2.05 0.02-3.11 0.03-2.76-0.23-4.39-0.8-6.75-2.23-0.02-3.48-0.04-6.96-0.06-10.4-0.01-1-0.01-1.99-0.02-3.01-0.01-0.95-0.01-1.89-0.01-2.87-0.01-0.87-0.01-1.75-0.02-2.65 0.29-5.15 7.57-3.31 11.5-3.35z" fill="#5C8FC7"/>
<path transform="translate(1308 532)" d="m0 0c0.98-0.01 1.96-0.03 2.97-0.04 2.53 0.23 2.53 0.23 4.53 2.23-0.43 7.7-3.15 15.4-5.44 22.7-0.3 0.98-0.6 1.96-0.91 2.97-1.33 4.31-2.71 8.59-4.33 12.8-1.76 4.7-2.94 8.68-1.32 13.5 3.07-0.07 6.01-0.25 9-1 1.94-2.39 1.94-2.39 3-5 1.48-0.5 1.48-0.5 3-1-1.14 4.72-3.95 7.57-7.57 10.6-4.36 2.51-8.6 2.33-13.4 1.4-2.75-1.38-2.75-1.38-4-4-0.55-7.91 2.52-15.6 5-23 0.58-1.75 1.17-3.51 1.75-5.26 0.92-2.77 1.85-5.55 2.79-8.32 1.61-4.78 3.12-9.56 4.46-14.4-2.34-0.38-2.34-0.38-5 0-2.12 1.94-2.12 1.94-3.81 4.5-0.61 0.83-1.21 1.67-1.83 2.53-0.45 0.65-0.9 1.3-1.36 1.97l-1-2c0.94-2.13 0.94-2.13 2-4h2c0.43-1.46 0.43-1.46 0.88-2.94 1.75-4.77 3.92-4.22 8.62-4.25z" fill="#379DB4"/>
<path transform="translate(354,581)" d="m0 0 3 2c0.36 2.06 0.36 2.06 0.34 4.63v2.91c-0.02 1.04-0.03 2.08-0.05 3.16 0 1.06-0.01 2.12-0.01 3.22-0.02 3.4-0.05 6.8-0.09 10.2-0.02 2.31-0.03 4.61-0.04 6.92-0.04 5.65-0.09 11.3-0.15 17h-1v-25c-2.19 0.08-4.37 0.16-6.62 0.25-4.23 0.16-6.91-0.05-10.8-1.72-2.73-2.7-2.95-3.05-3.15-6.64 0.04-1.55 0.12-3.09 0.21-4.64 0.03-0.79 0.06-1.59 0.09-2.4 0.07-1.95 0.18-3.9 0.29-5.85l-16-1v-2c0.96 0.01 1.92 0.01 2.91 0.02 3.55 0.01 7.1 0.03 10.6 0.03l4.62 0.03c2.21 0.01 4.42 0.01 6.62 0.02 0.69 0 1.38 0.01 2.09 0.01 3.68 0.05 3.68 0.05 7.11-1.11z" fill="#5C8FC7"/>
<path transform="translate(1404,532)" d="m0 0c2.25 1.88 2.25 1.88 3 5 0.12 8.62-2.95 16.3-5.94 24.2-0.46 1.25-0.92 2.5-1.38 3.76-0.84 2.3-1.69 4.6-2.55 6.9-2.8 6.44-2.8 6.44-2.13 13.1h7l1-3h2l1-3 1 3c-1.07 1.75-1.07 1.75-2.69 3.56-0.52 0.6-1.04 1.2-1.57 1.82-3 2.8-5.14 3.58-9.24 3.87-5.04-0.36-5.04-0.36-7.5-2.25-4.31-10.2 6.39-29.4 10.2-38.9 1.65-4.5 1.87-8.31 1.78-13.1-1.6-0.05-3.21-0.09-4.81-0.12-0.9-0.03-1.79-0.05-2.71-0.08-2.73 0.02-2.73 0.02-5.48 2.2l2-4h3v-2c4.63-1.54 9.17-1.62 14-1z" fill="#379EB4"/>
<path transform="translate(216,625)" d="m0 0c4.75 1.88 4.75 1.88 7 3 2.1-0.4 2.1-0.4 4-1 0.29 0.93 0.58 1.86 0.88 2.81 1.01 3.29 1.01 3.29 3.12 6.19l-1 2c0.99 0.33 1.98 0.66 3 1 1.19 3.06 1.19 3.06 2 6 2.31 0.33 4.62 0.66 7 1v2c0.99 0.33 1.98 0.66 3 1-1.13 0.12-2.27 0.25-3.44 0.38-1.17 0.2-2.35 0.41-3.56 0.62l-1 2c-2.31-0.33-4.62-0.66-7-1v-3c-0.93-0.29-1.86-0.58-2.81-0.88-3.19-1.12-3.19-1.12-6.19-3.12-5.48-0.13-10.8 1.37-16 3-3.31 1.01-6.29 1.1-9.75 1.06-0.98-0.01-1.97-0.02-2.98-0.02-0.75-0.02-1.5-0.03-2.27-0.04 10.2-10.6 10.2-10.6 16-11v-3l4-2v2h3 2l-2-6 3-3z" fill="#6EA7D8"/>
<path transform="translate(894 531)" d="m0 0c0.79 0.07 1.59 0.13 2.41 0.2 2.09 0.55 2.09 0.55 4.09 3.55 0.2 5.45-0.96 10.6-3.05 15.6-1.28 3.23-2.32 6.53-3.39 9.83-1.63 5-3.48 9.79-5.71 14.6-1.37 3.25-2.1 6.57-2.85 10 4.85 1.34 7.61 0.35 12-2-1.48 3.46-2.87 5.86-6 8-5.21 0.64-9.56 0.96-14-2-1.36-8.94 3.64-18.2 6.87-26.3 0.24-0.62 0.49-1.24 0.74-1.88 2.03-5.13 2.03-5.13 3.06-7.64 0.77-1.88 1.52-3.78 2.26-5.67 0.45-1.11 0.89-2.22 1.35-3.36 0.86-3.74 0.23-5.67-1.28-9.15-3.12 0.65-3.12 0.65-4 3h-2l-1 4-2-3 1-2h3c0.29-0.8 0.58-1.61 0.88-2.44 1.76-4.03 3.59-3.7 7.62-3.31z" fill="#379EB4"/>
<path transform="translate(1343,533)" d="m0 0c0.6 6.43-1.31 11.7-3.28 17.7-1.54 4.8-3.01 9.62-4.47 14.4-0.32 1.01-0.64 2.02-0.96 3.06-1.93 6.41-2.72 12.1-2.29 18.8 3.58-1.89 5.6-3.14 7-7 0.37-1.32 0.71-2.66 1-4 1.98-0.5 1.98-0.5 4-1-1.04 4.85-3.07 9-6 13-5.11 3.21-8.21 2.98-14 2-0.6-17.2 3.27-31.9 9-48 0.26-0.75 0.52-1.49 0.79-2.26 1.98-5.56 1.98-5.56 4.21-7.3 2-0.44 2-0.44 5 0.56z" fill="#399FB4"/>
<path transform="translate(1154,556)" d="m0 0c3.62-0.06 7.25-0.09 10.9-0.12 1.03-0.02 2.06-0.04 3.12-0.06 0.99 0 1.98-0.01 2.99-0.02 1.37-0.01 1.37-0.01 2.76-0.03 2.25 0.23 2.25 0.23 4.25 2.23-0.91 0.54-1.82 1.07-2.75 1.62-5.13 4.26-5.77 11.2-7.25 17.4-0.58 2.13-1.16 4.25-1.75 6.38-0.42 1.54-0.83 3.08-1.25 4.62-2.47-0.99-2.47-0.99-5-2v-3c-0.47 0.4-0.95 0.8-1.43 1.21-6.46 5.17-14.4 9.04-22.9 8.7-8.55-1.49-16.6-5.53-21.8-12.6-2.49-4.38-2.49-4.38-2.88-7.31l2-2c3 6.62 3 6.62 3 10l4 1v2h2v-2c0.85 0.43 0.85 0.43 1.73 0.87 9.45 4.7 16.5 7.38 27.1 4.32 2.67-1.45 2.95-2.48 4.19-5.19 0.34-0.65 0.68-1.3 1.04-1.96 3.25-6.25 4.1-10.9 3.96-18-2.31-0.99-4.62-1.98-7-3l1-3z" fill="#46B8C6"/>
<path transform="translate(267 631)" d="m0 0c1.11 0.21 1.11 0.21 2.24 0.43l2 3c7.12 2.59 14.5 2 21.9 1.29 6.05-0.57 11.9-0.73 17.1 2.71l2 3-4 2v-2c-3.07 0.78-3.07 0.78-5 3v-2c-1.03 0.33-2.06 0.66-3.12 1-3.37 0.98-6.36 1.08-9.88 1-0.99 0.33-1.98 0.66-3 1-1.33-0.32-2.67-0.66-4-1-3.08 0.01-6.14 0.13-9.22 0.26-2.78-0.26-2.78-0.26-4.65-1.64-1.13-1.62-1.13-1.62-1.13-3.62-0.88 0.21-1.77 0.42-2.69 0.63-3.59 0.41-5.07-0.23-8.31-1.63-0.99 0.33-1.98 0.66-3 1 0.36-2.51 1.06-4.09 2.44-6.25 3.47-2.37 6.2-2.19 10.3-2.18z" fill="#6FA8D9"/>
<path transform="translate(496 309)" d="m0 0c5.19 1.03 10 1.11 15.3 1 3.47 0.08 6.54 0.82 9.89 1.68 2.82 0.55 5.2 0.03 7.96-0.62 4 0 4 0 6 1 0 3 0 3-2.31 5.5-0.88 0.83-1.77 1.65-2.69 2.5-0.43 0.62-0.86 1.24-1.31 1.88-2.48 1.65-4.6 1.05-7.43 0.58-3.77-0.76-7.51-1.58-11.3-2.46-3.62-1.04-3.62-1.04-7 0-0.32-0.66-0.66-1.32-1-2-2.35-0.47-2.35-0.47-5.06-0.62-0.92-0.08-1.84-0.15-2.78-0.23-0.71-0.05-1.42-0.1-2.16-0.15 0-4 0-4 1-6-1.31-0.66-2.63-1.32-4-2 2.69-1.34 3.97-0.71 6.88-0.06z" fill="#6FA8D9"/>
<path transform="translate(1171 513)" d="m0 0c2.26 1.65 4.48 3.31 6.59 5.16 0.76-0.33 1.52-0.66 2.31-1 2.69-1 2.69-1 5.69-1-0.62 0.9-1.24 1.81-1.88 2.75-2.92 5.02-3.41 10.6-4.12 16.2-0.5-0.99-0.5-0.99-1-2h-2c-0.05-1.16-0.09-2.31-0.13-3.5-0.68-5.3-3.14-8.78-6.87-12.5-5.7-4-11.6-3.31-18.4-2.73-4.41 0.89-6.95 2.4-10.2 5.45-1.41 1.28-1.41 1.28-3.41 1.28l-1 2-3-3v-2c10.1-8.12 25.7-12.3 37.4-5.16z" fill="#379EB4"/>
<path transform="translate(500,156)" d="m0 0h88l-2 4c-1.23-0.03-2.46-0.06-3.73-0.09-5.82-0.14-11.6-0.28-17.5-0.41-1.05-0.02-2.11-0.05-3.19-0.07-16.2-0.37-32.4-0.52-48.7-0.39-1.1 0-1.1 0-2.22 0.01-1.95 0.01-3.9 0.03-5.85 0.05-2.88-0.1-2.88-0.1-4.88-1.1v-2z" fill="#6CA7D6"/>
<path transform="translate(386,156)" d="m0 0h89v2c-3.01 1.51-6.11 1.12-9.42 1.1-0.76 0-1.52-0.01-2.31-0.01-1.66 0-3.33-0.01-4.99-0.01-2.63-0.02-5.26-0.02-7.89-0.03-6.54-0.01-13.1-0.04-19.6-0.06-5.52-0.02-11-0.04-16.6-0.05-2.59 0-5.18-0.01-7.77-0.03-1.59 0-3.18 0-4.78-0.01-0.72 0-1.44-0.01-2.18-0.01-3.35 0-6.26 0.26-9.49 1.11-2.25-0.94-2.25-0.94-4-2v-2z" fill="#6CA7D6"/>
<path transform="translate(1e3 532)" d="m0 0c2 3 2 3 1.75 5.88-0.69 2.86-1.56 5.43-2.75 8.12-3.37-0.55-5.08-1.05-8-3l-1-3h-3c-1.67 2.03-3.12 4-4.56 6.19-0.4 0.58-0.8 1.15-1.21 1.75-2.19 3.24-3.94 6.37-5.23 10.1-0.99-0.33-1.98-0.66-3-1-0.38-6.2 0.16-10.4 3-16 2.02 0.1 4.04 0.2 6.05 0.29 0.97-0.14 0.97-0.14 1.95-0.29l2-3h2v-2c4-3.24 6.81-4.83 12-4z" fill="#46B8C6"/>
<path transform="translate(1112,571)" d="m0 0c4 6 4 6 4 10l4 1v2h2v-2c0.57 0.29 1.14 0.57 1.73 0.87 9.45 4.7 16.5 7.38 27.1 4.32 2.62-1.43 3.12-2.46 4.19-5.19l2-3h2v3l2 1c-0.66 0.39-1.32 0.78-2 1.19-1.61 0.97-3.22 1.97-4.76 3.05-6.59 4.52-13.2 6.46-21.2 5.32-7.44-1.83-14.6-6.07-19.2-12.2-1.52-2.68-2.39-4.36-2.88-7.31l1-2z" fill="#3FA0B7"/>
<path transform="translate(789,545)" d="m0 0c0.99 0.33 1.98 0.66 3 1-0.18 0.66-0.36 1.31-0.55 1.99-1.9 6.95-3.75 13.9-5.57 20.9-0.27 1-0.53 2.01-0.81 3.04-0.25 0.97-0.5 1.95-0.77 2.95-0.22 0.86-0.45 1.73-0.68 2.63-0.62 2.49-1.14 4.98-1.62 7.5 1.7 0.19 1.7 0.19 3.44 0.38 1.17 0.2 2.35 0.41 3.56 0.62l1 2c-6.51 0.7-12.6 1.32-19 0l1-2c1.2-0.15 1.2-0.15 2.43-0.31 2.75-0.42 2.75-0.42 3.86-2.88 0.3-0.93 0.59-1.85 0.9-2.81 0.32-1 0.64-2.01 0.98-3.04 0.88-3.15 1.62-6.29 2.26-9.49 1.44-6.26 3.54-12.4 5.57-18.5h2l-1-4z" fill="#379DB4"/>
<path transform="translate(300 102)" d="m0 0c4.4 0.36 8.71 0.6 13.1 0.5 5.93-0.08 11.6 0.93 17.4 2.06l-1 3c-5.38 0.85-9.59 0.95-15 0-8.96-1.17-18-1.54-27-2 3.88-4.24 6.96-4.06 12.5-3.56z" fill="#49BDC8"/>
<path transform="translate(352,649)" d="m0 0 2 2 2-1v4c-4.85 0.97-9.56 1.14-14.5 1.09-0.82 0-1.64 0-2.49-0.01-10.1-0.06-20.1-0.32-30.2-0.58-1.93-0.05-3.87-0.1-5.81-0.14-4.67-0.12-9.33-0.24-14-0.36l1-2c7.56-0.03 15.1-0.04 22.7-0.05l7.71-0.03c3.7-0.01 7.4-0.01 11.1-0.02 1.72-0.01 1.72-0.01 3.47-0.01 5.46 0 10.7 0.13 16 1.11v-2l-2-1c0.99-0.33 1.98-0.66 3-1z" fill="#6CA7D6"/>
<path transform="translate(1048,570)" d="m0 0h3v4h2v-2l4 1c0.33 4.66-0.18 7.24-3 11-3.22 2.15-4.27 2.38-8 2-2-2-2-2-2.08-3.99 0.53-4.6 1-8.34 4.08-12z" fill="#FAFDFF"/>
<path transform="translate(115,520)" d="m0 0h1c1.34 29.1 0.92 57.9 0 87-0.99 0.5-0.99 0.5-2 1-0.11-29.4-0.09-58.7 1-88z" fill="#6CA7D6"/>
<path transform="translate(118,411)" d="m0 0c6.32-0.03 12.6-0.04 19-0.05l6.45-0.03c3.09-0.01 6.18-0.01 9.27-0.02 0.96 0 1.91-0.01 2.9-0.01h2.73c0.79-0.01 1.58-0.01 2.39-0.01 2.51 0.13 4.86 0.57 7.31 1.12v1c-5.39 0.9-10.6 1.15-16 1.13-0.84 0-1.69 0-2.56 0.01-1.77 0-3.54-0.01-5.32-0.01-2.7 0-5.41 0-8.12 0.01-1.73 0-3.46-0.01-5.19-0.01-1.2 0.01-1.2 0.01-2.44 0.01-3.91-0.02-7.51-0.18-11.3-1.14l1-2z" fill="#669FD1"/>
<path transform="translate(838,580)" d="m0 0c3.47 1.49 3.47 1.49 7 3l2-2c1.01 1.12 2 2.25 3 3.38 0.56 0.62 1.11 1.25 1.69 1.89 1.31 1.73 1.31 1.73 1.31 3.73-3.62 0.09-7.25 0.14-10.9 0.19-1.54 0.04-1.54 0.04-3.12 0.07-0.99 0.01-1.98 0.02-2.99 0.03-1.37 0.03-1.37 0.03-2.76 0.05-0.74-0.11-1.49-0.22-2.25-0.34l-2-3c1.11-0.23 2.23-0.45 3.38-0.69 3.78-0.92 3.78-0.92 5.06-3.93 0.18-0.79 0.37-1.57 0.56-2.38z" fill="#379EB4"/>
<path transform="translate(445,232)" d="m0 0v2l5 1v4c-0.99 0.33-1.98 0.66-3 1v2h-12l-1-2 2-1c-0.23-0.6-0.45-1.2-0.69-1.81-0.31-2.19-0.31-2.19 0.69-3.94 2.97-1.85 5.58-1.44 9-1.25z" fill="#6FA9D9"/>
<path transform="translate(550 158)" d="m0 0c1.07 0.02 2.15 0.04 3.26 0.06 2.26 0.04 4.52 0.08 6.78 0.13 3.48 0.07 6.95 0.13 10.4 0.18 2.2 0.04 4.4 0.09 6.6 0.13 1.57 0.02 1.57 0.02 3.16 0.04 0.96 0.03 1.93 0.05 2.92 0.07 1.27 0.03 1.27 0.03 2.57 0.05 2.06 0.29 2.06 0.29 4.06 2.29h-57v-2c5.75-1.26 11.4-1.07 17.2-0.95z" fill="#6FA9D9"/>
<path transform="translate(793 512)" d="m0 0c1.33 0.01 1.33 0.01 2.69 0.02 0.88-0.01 1.77-0.01 2.69-0.02 2.31 0.27 2.31 0.27 4.31 2.27-0.38 2.62-0.38 2.62-1 5l-4-1c-0.03 0.64-0.05 1.28-0.08 1.94-0.49 7.79-2.41 14.7-4.92 22.1l-2-4h2c-0.19-0.6-0.37-1.2-0.57-1.82-0.43-2.18-0.43-2.18 0.57-5.18h2c-0.28-1.21-0.28-1.21-0.57-2.44-0.14-0.85-0.28-1.69-0.43-2.56l1-1c-0.09-1.7-0.25-3.38-0.44-5.07-0.15-1.38-0.15-1.38-0.31-2.78-0.08-0.71-0.17-1.42-0.25-2.15l-5-1c2-2 2-2 4.31-2.27z" fill="#389DB4"/>
<path transform="translate(905,507)" d="m0 0c1.81 2.5 1.81 2.5 3 5-1.98 2.64-3.96 5.28-6 8-4-1-4-1-5.81-2.75-1.19-2.25-1.19-2.25-1.13-4.81 1.78-4.62 5.07-6.44 9.94-5.44z" fill="#47B9C7"/>
<path transform="translate(384,158)" d="m0 0c1.27 3.8 1.15 7.35 1.12 11.3v2.49c-0.07 10.1-0.58 20.1-1.12 30.2h-2v-43l2-1z" fill="#6EA7D8"/>
<path transform="translate(1262,574)" d="m0 0h4c-0.35 0.78-0.7 1.57-1.06 2.38-0.31 0.86-0.62 1.73-0.94 2.62l1 2c1.97-0.03 1.97-0.03 4-1 1.3-3 1.3-3 2-6 2 1 2 1 2.75 2.81 0.32 2.8-0.18 3.87-1.75 6.19-1.91 2.06-3.22 2.93-6.04 3.18-1.99 0.01-3.97-0.08-5.96-0.18-1.16-3.48-0.77-4.34 0.44-7.69 0.43-1.21 0.43-1.21 0.87-2.45 0.23-0.61 0.45-1.23 0.69-1.86z" fill="#FAFDFF"/>
<path transform="translate(853,523)" d="m0 0c1.66 3.33-0.02 6.68-0.94 10.1-0.19 0.76-0.39 1.51-0.59 2.29-0.48 1.87-0.98 3.73-1.47 5.59l-5-3v2c-1.98 0.66-3.96 1.32-6 2 2.06-5.54 4.49-10.1 9-14h2c0.12-0.64 0.25-1.28 0.38-1.94 0.2-0.68 0.41-1.36 0.62-2.06l2-1z" fill="#DFEFF4"/>
<path transform="translate(115,607)" d="m0 0c2 2 2 2 2.24 4.15 0 0.87-0.01 1.75-0.01 2.65v2.95c-0.02 1.03-0.03 2.06-0.04 3.13-0.01 1.04-0.02 2.08-0.02 3.15-0.07 7.03-0.33 14-1.17 21h-2c-0.02-5.11-0.04-10.2-0.05-15.3-0.01-1.74-0.02-3.47-0.03-5.21-0.01-2.5-0.01-4.99-0.02-7.49 0-0.78-0.01-1.56-0.01-2.37 0-1.87 0.05-3.73 0.11-5.6l1-1z" fill="#67A0D2"/>
<path transform="translate(979,541)" d="m0 0 8 1c-1.41 4.11-3.51 7.52-5.88 11.1-1.28 1.98-1.28 1.98-2.12 4.87-0.99-0.33-1.98-0.66-3-1-0.38-6.2 0.16-10.4 3-16z" fill="#4BBFC9"/>
<path transform="translate(1112,571)" d="m0 0c4 6 4 6 4 10l4 1v2h2v-2c3.96 1.67 6.84 4.13 10 7v2c-7.1-1.09-13.8-4.8-18.1-10.6-1.57-2.73-2.44-4.38-2.94-7.38l1-2z" fill="#4BA6C2"/>
<path transform="translate(356,606)" d="m0 0 1 35c-2.63-2.63-2.29-3.9-2.38-7.56-0.03-1.11-0.07-2.21-0.1-3.36-0.04-1.74-0.04-1.74-0.08-3.52-0.06-2.29-0.13-4.58-0.19-6.87-0.03-1.02-0.05-2.04-0.08-3.09-0.07-2.71-0.07-2.71-1.17-5.6-3.51-1.23-3.51-1.23-7-2 2.95-4.16 4.08-3 10-3z" fill="#6BA6D5"/>
<path transform="translate(559,354)" d="m0 0 4 2-1 3c0.88 3.15 0.88 3.15 2 6h-10c-1.25-2.49-0.78-3.41 0-6h3c0.14-0.64 0.29-1.28 0.44-1.94 0.56-2.06 0.56-2.06 1.56-3.06z" fill="#6FA9D9"/>
<path transform="translate(837,543)" d="m0 0 1 3c-0.93 1.8-0.93 1.8-2.44 3.88-2.64 3.75-5.07 7.56-7.44 11.5-3.73 6.11-7.81 11.9-12.1 17.6l-2-4c0.99-0.33 1.98-0.66 3-1v-2l3-3c0.5-0.83 0.99-1.65 1.5-2.5 1.5-2.5 1.5-2.5 3.06-4 1.87-1.95 2.53-3.97 3.44-6.5l1-2h2c0.25-0.7 0.5-1.4 0.75-2.12 1.41-3.25 3.23-5.98 5.25-8.88z" fill="#379EB4"/>
<path transform="translate(499,156)" d="m0 0 1 2c16.3 0.5 16.3 0.5 33 1v1c-5.85 0.02-11.7 0.04-17.6 0.05-1.99 0.01-3.98 0.02-5.97 0.03-2.86 0.01-5.73 0.01-8.6 0.02-1.32 0.01-1.32 0.01-2.67 0.01-4.85 0-9.42-0.29-14.2-1.11v-1c4.95-0.66 9.9-1.32 15-2z" fill="#6EA8D8"/>
<path transform="translate(258,612)" d="m0 0c0.62 0.33 1.24 0.66 1.88 1 2.03 1.14 2.03 1.14 4.12 1l2 4c-1.75 2.21-2.61 2.94-5.44 3.38-3.92-0.58-5.83-2.65-8.56-5.38l6-4z" fill="#6CA7D6"/>
<path transform="translate(111,414)" d="m0 0c0.99 0.33 1.98 0.66 3 1 1.14 7.5 0.76 14.5 0 22-0.99-0.33-1.98-0.66-3-1v-22z" fill="#FAFDFF"/>
<path transform="translate(551,344)" d="m0 0c2.01 3.02 2.27 3.81 2.41 7.23 0.04 0.8 0.08 1.61 0.12 2.43 0.03 0.84 0.06 1.67 0.09 2.53 0.04 0.84 0.08 1.69 0.12 2.56 0.1 2.08 0.18 4.17 0.26 6.25h-4c-0.03-3.31-0.05-6.62-0.06-9.94-0.01-0.94-0.02-1.89-0.03-2.86 0-0.9 0-1.8-0.01-2.73 0-0.83-0.01-1.66-0.01-2.52 0.11-1.95 0.11-1.95 1.11-2.95z" fill="#6AA4D4"/>
<path transform="translate(198,459)" d="m0 0c1.6-0.05 3.21-0.09 4.81-0.12 0.9-0.03 1.79-0.05 2.71-0.08 2.48 0.2 2.48 0.2 5.48 2.2 0.19 3.12 0.19 3.12 0 6l-1-2c-0.76 0.21-1.53 0.41-2.31 0.62-2.69 0.38-2.69 0.38-5.69-1.62l-3 3v-2l-2-1 4-2-3-3z" fill="#6CA7D6"/>
<path transform="translate(555,279)" d="m0 0c0.99 0.33 1.98 0.66 3 1 0.04 2.33 0.04 4.67 0 7l-1 1 1 2h-7c-1.16-3.48-0.71-5.46 0-9h4v-2z" fill="#6CA7D6"/>
<path transform="translate(1323,568)" d="m0 0 2 1c-0.06 1.96-0.15 3.92-0.25 5.88-0.05 1.09-0.09 2.18-0.14 3.3-0.61 2.82-0.61 2.82-2.66 4.2-0.64 0.21-1.29 0.41-1.95 0.62-2-3-2-3-1.75-5.88 0.69-2.89 1.45-5.45 2.75-8.12l2-1z" fill="#D6E9F1"/>
<path transform="translate(186,460)" d="m0 0c0.78 0.19 1.57 0.37 2.38 0.56 2.59 0.7 2.59 0.7 4.62-0.56 1.55 0.09 3.09 0.24 4.62 0.44 1.23 0.15 1.23 0.15 2.48 0.31 0.94 0.12 0.94 0.12 1.9 0.25l-1 2c-2.32 0.41-4.66 0.74-7 1v5l2 1h-5l-1-3 2-2-6-3v-2z" fill="#6FA9D9"/>
<path transform="translate(286,485)" d="m0 0c2.48 0.99 2.48 0.99 5 2-0.06 0.76-0.12 1.53-0.19 2.31-0.11 2.72-0.11 2.72 1.69 4.13 1.5 1.56 1.5 1.56 1.69 4.75-0.06 0.93-0.13 1.85-0.19 2.81-0.56-0.72-1.11-1.44-1.69-2.19-2.27-2.88-2.27-2.88-5.06-5.43-2.25-2.38-2.25-2.38-2.25-5.38l1-3z" fill="#6FA7D9"/>
<path transform="translate(898,573)" d="m0 0c0.99 0.33 1.98 0.66 3 1-0.79 3.11-1.64 6.09-3 9-2.62 1.44-2.62 1.44-5 2l-1 2-3-2c0.48-0.53 0.96-1.06 1.46-1.61 0.63-0.71 1.26-1.41 1.92-2.14 0.93-1.04 0.93-1.04 1.89-2.11 1.61-1.99 2.7-3.82 3.73-6.14z" fill="#DEEFF4"/>
<path transform="translate(574,485)" d="m0 0h1c0.03 3.42 0.05 6.83 0.06 10.2 0.01 0.97 0.02 1.94 0.03 2.93 0 0.94 0 1.87 0.01 2.84 0 0.85 0.01 1.71 0.01 2.6-0.1 2.27-0.47 4.21-1.11 6.38h-2v-15h2v-10z" fill="#42B2C1"/>
<path transform="translate(1135,272)" d="m0 0c3 3 3 3 3.29 6.79-0.02 1.47-0.05 2.93-0.1 4.4-0.02 1.12-0.02 1.12-0.04 2.27-0.04 1.85-0.09 3.69-0.15 5.54h-3v-19z" fill="#FAFDFF"/>
<path transform="translate(1315,372)" d="m0 0v8h14v1c-0.75 0.06-1.5 0.12-2.27 0.18-0.98 0.09-1.97 0.17-2.98 0.26-1.46 0.12-1.46 0.12-2.95 0.24-2.74 0.23-2.74 0.23-5.03 0.98-0.59 0.11-1.17 0.22-1.77 0.34-2-2-2-2-2.2-3.95 0.07-2.01 0.13-4.03 0.2-6.05 2-1 2-1 3-1z" fill="#FAFDFF"/>
<path transform="translate(384,158)" d="m0 0c1.19 3.57 1.18 6.85 1.19 10.6 0.01 0.69 0.02 1.37 0.03 2.08 0.01 1.79-0.1 3.58-0.22 5.36l-2 2c-1.27-3.87-1.11-7.73-1.06-11.8 0-0.7 0.01-1.39 0.01-2.11 0.01-1.72 0.03-3.43 0.05-5.14l2-1z" fill="#6CA7D6"/>
<path transform="translate(1313,300)" d="m0 0h2v17c-0.99-0.33-1.98-0.66-3-1-0.03-2.1-0.05-4.21-0.06-6.31-0.01-1.17-0.03-2.35-0.04-3.55 0.1-3.14 0.1-3.14 1.1-6.14z" fill="#FAFDFF"/>
<path transform="translate(267 483)" d="m0 0c1.43-0 1.43-0 2.89-0.01 2.42 0.13 2.42 0.13 4.42 1.13-0.33 0.67-0.66 1.32-1 2-0.64-0.01-1.27-0.02-1.93-0.03-0.83-0.01-1.65-0.02-2.5-0.03-0.83-0.01-1.65-0.02-2.5-0.03-2.06-0.14-2.06-0.14-3.07 1.09-2 0.05-4 0.05-6 0l-1-3c3.62-0.83 6.98-1.13 10.7-1.12z" fill="#6EA7D8"/>
<path transform="translate(352,649)" d="m0 0 2 2 2-1v4c-5.33 1.11-10.5 1.12-15.9 1.06-0.87 0-1.75-0.01-2.66-0.01-2.15-0.01-4.31-0.03-6.46-0.05v-1c9.9-0.5 9.9-0.5 20-1v-2l-2-1c0.99-0.33 1.98-0.66 3-1z" fill="#649BCE"/>
<path transform="translate(1215,576)" d="m0 0h3l2 14c-2-1-2-1-3-4l-3-2c-0.81-2.44-0.81-2.44-1-5l2-3z" fill="#EDF6FA"/>
<path transform="translate(248,483)" d="m0 0h13l-2 2h-2v2l2 1c-3.48 1.16-5.46 0.71-9 0l1-3-3-2z" fill="#6CA7D6"/>
<path transform="translate(1365,386)" d="m0 0v15c-0.99-0.33-1.98-0.66-3-1v-13c2-1 2-1 3-1z" fill="#FAFDFF"/>
<path transform="translate(356,606)" d="m0 0v9c-2-1-2-1-3-4-3.51-1.23-3.51-1.23-7-2 2.7-3.82 5.62-3.25 10-3z" fill="#6CA7D6"/>
<path transform="translate(1112,571)" d="m0 0c4 6 4 6 4 10l4 1v2h2l-1 3c-4.86-3.53-8.22-7.13-10-13l1-3z" fill="#38A0B5"/>
<path transform="translate(544,338)" d="m0 0c2.49 1.2 4.68 2.45 7 4-2.73 0.05-5.46 0.09-8.19 0.12-1.15 0.03-1.15 0.03-2.33 0.06-4.29 0.03-7.56-0.18-11.5-2.18v-1c1 0.01 2 0.02 3.03 0.04 1.29 0 2.58 0.01 3.91 0.02 1.93 0.02 1.93 0.02 3.9 0.04 3.02 0.27 3.02 0.27 4.16-1.1z" fill="#6BA6D5"/>
<path transform="translate(1128,586)" d="m0 0c1.98 0.45 3.96 0.91 5.94 1.38 1.1 0.25 2.2 0.51 3.34 0.77 0.9 0.28 1.79 0.56 2.72 0.85l1 2-1 2-8-1-1-3c-1.5-1.67-1.5-1.67-3-3z" fill="#3C9FB7"/>
<path transform="translate(168,127)" d="m0 0c2.19 1 2.19 1 4 2l-4 5-4-1v-2l-2-1c2.62-3 2.62-3 6-3z" fill="#4BBFC9"/>
<path transform="translate(888,576)" d="m0 0 2 1v4c-0.99 0.5-0.99 0.5-2 1l1 5c-1.94-0.31-1.94-0.31-4-1-1.26-3.79-0.5-5.38 1-9l2-1zm1 7c0.99 0.5 0.99 0.5 2 1-0.99 0.5-0.99 0.5-2 1v-2z" fill="#FAFDFF"/>
<path transform="translate(798,518)" d="m0 0h2l1 12-4 1c-0.08-4.52-0.1-8.59 1-13z" fill="#FAFDFF"/>
<path transform="translate(862,512)" d="m0 0c1.58-0.05 3.17-0.09 4.75-0.12 0.88-0.03 1.76-0.05 2.67-0.08 2.69 0.21 4.28 0.83 6.58 2.2-0.94 0.2-0.94 0.2-1.9 0.4-1.22 0.27-1.22 0.27-2.48 0.54-0.81 0.17-1.62 0.35-2.46 0.52-2.19 0.46-2.19 0.46-4.16 1.54-1.5-1.38-1.5-1.38-3-3v-2z" fill="#379EB4"/>
<path transform="translate(1036,571)" d="m0 0c2 2 2 2 2.2 3.95-0.07 2.01-0.13 4.03-0.2 6.05h-2l-1 4h-2c0.54-3.38 1.12-6.69 2-10 0.19-0.74 0.37-1.49 0.56-2.25 0.22-0.87 0.22-0.87 0.44-1.75z" fill="#FAFDFF"/>
<path transform="translate(837,543)" d="m0 0 1 3c-1.07 2.02-1.07 2.02-2.69 4.25-2.68 3.82-5.05 7.67-7.31 11.8l-2-1c1.88-4.75 1.88-4.75 3-7h2c0.25-0.7 0.5-1.4 0.75-2.12 1.41-3.25 3.23-5.98 5.25-8.88z" fill="#399DB5"/>
<path transform="translate(559,275)" d="m0 0c5.57 1.45 5.57 1.45 7.44 3.81 0.69 2.7 0.3 4.53-0.44 7.19-2.87-2.6-4.27-4.21-5-8l-2-3z" fill="#6CA7D6"/>
<path transform="translate(1447,394)" d="m0 0c1.91 3.17 2.16 5.11 1.62 8.75-0.11 0.8-0.22 1.6-0.33 2.42-0.1 0.61-0.19 1.21-0.29 1.83-0.99-0.33-1.98-0.66-3-1v-10h2v-2z" fill="#FAFDFF"/>
<path transform="translate(137,625)" d="m0 0 4 1-1 3c0.99 0.33 1.98 0.66 3 1l-2 2-2-1-1 2-3-2 2-6z" fill="#6FA8D9"/>
<path transform="translate(855,517)" d="m0 0 1 4h-3v3h-2l-1 4h-2l-2 4c0-3 0-3 1-5h2c0.18-0.64 0.36-1.28 0.55-1.93 0.25-0.83 0.5-1.66 0.76-2.51 0.25-0.82 0.49-1.64 0.74-2.49 0.31-0.69 0.63-1.37 0.95-2.07 0.99-0.33 1.98-0.66 3-1z" fill="#399FB5"/>
<path transform="translate(177 412)" d="m0 0c0.9 0.02 1.81 0.05 2.74 0.07 1.37 0.03 1.37 0.03 2.76 0.05 0.7 0.03 1.4 0.05 2.12 0.08l1 4c-4.29-0.66-8.58-1.32-13-2 2-2 2-2 4.38-2.2z" fill="#6BA6D5"/>
<path transform="translate(308,325)" d="m0 0h1c0.85 3.67 1.11 7.04 1.06 10.8-0.01 0.98-0.02 1.95-0.02 2.96-0.02 0.74-0.03 1.47-0.04 2.23l-4 1c0.23-0.78 0.23-0.78 0.46-1.58 0.68-3.05 0.88-6.05 1.1-9.17 0.09-1.17 0.17-2.34 0.26-3.55 0.06-0.89 0.12-1.78 0.18-2.7z" fill="#46B9C6"/>
<path transform="translate(190,153)" d="m0 0-2 8c-1.71-1.62-3.37-3.29-5-5v-2c4.75-1 4.75-1 7-1z" fill="#49BDC8"/>
<path transform="translate(130,628)" d="m0 0c-0.19 0.62-0.37 1.24-0.56 1.88-0.68 2.16-0.68 2.16 0.56 4.12h-2v5c-1.51-1.96-2.89-3.78-4-6 0.31-2.06 0.31-2.06 1-4 2-1 2-1 5-1z" fill="#6CA7D6"/>
<path transform="translate(226,546)" d="m0 0c1.89 1.89 3.42 3.85 5 6l-1 2h-2l-1 2c-1.33-2.67-2.67-5.33-4-8l3-2z" fill="#6CA7D6"/>
<path transform="translate(1139 516)" d="m0 0c0.6 0.21 1.2 0.41 1.81 0.62-0.33 1.33-0.66 2.64-1 4h-2c-0.33 0.66-0.66 1.33-1 2l-3-3v-2c3-2 3-2 5.19-1.62z" fill="#3BA5B8"/>
<path transform="translate(1271,574)" d="m0 0c2 1 2 1 2.75 2.81 0.31 2.69-0.37 3.92-1.75 6.19h-2c-0.81-2.91-1.22-4.46-0.06-7.31 0.35-0.56 0.7-1.12 1.06-1.69z" fill="#BBDEE6"/>
<path transform="translate(1379,537)" d="m0 0 2 2 2-1 2 1c-0.81 1.94-0.81 1.94-2 4-0.99 0.33-1.98 0.66-3 1l-2-1 1-6z" fill="#D7ECF1"/>
<path transform="translate(889,534)" d="m0 0 3 3-5 1c-0.1 0.64-0.21 1.28-0.31 1.94-0.23 0.68-0.46 1.36-0.69 2.06-0.99 0.33-1.98 0.66-3 1l1-5h2l1-3 2-1z" fill="#FAFDFF"/>
<path transform="translate(1157,579)" d="m0 0h2v3l2 1c-2.95 1.8-5.89 3.5-9 5 1.24-3.44 2.56-6.25 5-9z" fill="#38A1B6"/>
<path transform="translate(574,579)" d="m0 0c2.28 3.42 2.22 4.68 2.12 8.69-0.01 0.99-0.03 1.99-0.05 3.01-0.03 1.14-0.03 1.14-0.07 2.3-0.99 0.5-0.99 0.5-2 1-1.51-5.04-0.65-9.88 0-15z" fill="#47BAC6"/>
<path transform="translate(1237,573)" d="m0 0 2 3c-0.88 3.69-0.88 3.69-2 7-1.56-1.69-1.56-1.69-3-4 0.19-2.69 0.19-2.69 1-5l2-1z" fill="#C5E3EA"/>
<path transform="translate(179,415)" d="m0 0c2-0.04 4-0.04 6 0 1 1 1 1 1.1 3.5-0.01 1.01-0.03 2.02-0.04 3.06-0.01 1.01-0.02 2.03-0.02 3.07-0.02 0.78-0.03 1.56-0.04 2.37l-2-1c0.02-0.91 0.04-1.81 0.06-2.75-0.05-2.68-0.28-4.72-1.06-7.25l-4-1z" fill="#6FA9D9"/>
</svg>
